/* XPM */
static char *_552bd33c1fc4b0dd59cf0965db77c94MZ3DIKoFFuYo9x5x[] = {
/* columns rows colors chars-per-pixel */
"40 40 13 1 ",
"  c #201208",
". c #21130A",
"X c #21140A",
"o c #2A221B",
"O c #2D2721",
"+ c #2D2621",
"@ c #23160D",
"# c #2B231D",
"$ c #2E2823",
"% c #23170E",
"& c #2A221C",
"* c #24180F",
"= c white",
/* pixels */
"                                        ",
"                                        ",
"                                        ",
"       .XXX    .XXX    .XXX    .XXX     ",
"       oO++@   oO++@   oO++@   oO++@    ",
"       #$$$%   #$$$%   #$$$%   #$$$%    ",
"       #$$$%   #$$$%   #$$$%   #$$$%    ",
"   .XXX&O++*.XX&O++*.XX&O++*.XX&O++@    ",
"   oO++*.XX&O++*.XX&O++*.XX&O++*.XX     ",
"   #$$$%   #$$$%   #$$$%   #$$$%        ",
"   #$$$%   #$$$%   #$$$%   #$$$%        ",
"   oO++*.XX&O++*.XX&O++*.XX&O++*.XX     ",
"   .XXX&O++*.XX&O++*.XX&O++*.XX&O++@    ",
"       #$$$%   #$$$%   #$$$%   #$$$%    ",
"       #$$$%   #$$$%   #$$$%   #$$$%    ",
"   .XXX&O++*.XX&O++*.XX&O++*.XX&O++@    ",
"   oO++*.XX&O++*.XX&O++*.XX&O++*.XX     ",
"   #$$$%   #$$$%   #$$$%   #$$$%        ",
"   #$$$%   #$$$%   #$$$%   #$$$%        ",
"   oO++*.XX&O++*.XX&O++*.XX&O++*.XX     ",
"   .XXX&O++*.XX&O++*.XX&O++*.XX&O++@    ",
"       #$$$%   #$$$%   #$$$%   #$$$%    ",
"       #$$$%   #$$$%   #$$$%   #$$$%    ",
"   .XXX&O++*.XX&O++*.XX&O++*.XX&O++@    ",
"   oO++*.XX&O++*.XX&O++*.XX&O++*.XX     ",
"   #$$$%   #$$$%   #$$$%   #$$$%        ",
"   #$$$%   #$$$%   #$$$%   #$$$%        ",
"   oO++*.XX&O++*.XX&O++*.XX&O++*.XX     ",
"   .XXX&O++*.XX&O++*.XX&O++*.XX&O++@    ",
"       #$$$%   #$$$%   #$$$%   #$$$%    ",
"       #$$$%   #$$$%   #$$$%   #$$$%    ",
"   .XXX&O++*.XX&O++*.XX&O++*.XX&O++@    ",
"   oO++*.XX&O++*.XX&O++*.XX&O++*.XX     ",
"   #$$$%   #$$$%   #$$$%   #$$$%        ",
"   #$$$%   #$$$%   #$$$%   #$$$%        ",
"   oO++@   oO++@   oO++@   oO++@        ",
"   .XXX    .XXX    .XXX    .XXX         ",
"                                        ",
"                                        ",
"                                        "
};
