/* XPM */
static char *_da701aaee344d38f9e98dd6708739907UFbiMRIXqGKrO3Y[] = {
/* columns rows colors chars-per-pixel */
"40 40 10 1 ",
"  c #201208",
". c #211308",
"X c #2A180B",
"o c #2A180C",
"O c #8E552D",
"+ c #985B31",
"@ c #985B30",
"# c #A36134",
"$ c #A26134",
"% c white",
/* pixels */
"                                        ",
"                                        ",
"                                        ",
"   .XooooooooooooooooooooooX.  .XooX.   ",
"   XO+@@@@@@@@@@@@@@@@@@@@+OX  XO++OX   ",
"   o+#$$$$$$$$$$$$$$$$$$$$#+o  o+##+o   ",
"   o@$$$$$$$$$$$$$$$$$$$$$$@o  o@$$@o   ",
"   o@$$$$$$$$$$$$$$$$$$$$$$@o  o@$$@o   ",
"   o@$$$$$$$$$$$$$$$$$$$$$$@o  o@$$@o   ",
"   o@$$$$$$$$$$$$$$$$$$$$$$@o  o@$$@o   ",
"   o+#$$$$$$$$$$$$$$$$$$$$#+o  o+##+o   ",
"   XO+@@@@@@@@@@@@@@@@@@@@+OX  XO++OX   ",
"   .XooooooooooooooooooooooX.  .XooX.   ",
"                                        ",
"                                        ",
"   .XooX.  .XooooooooooooooooooooooX.   ",
"   XO++OX  XO+@@@@@@@@@@@@@@@@@@@@+OX   ",
"   o+##+o  o+#$$$$$$$$$$$$$$$$$$$$#+o   ",
"   o@$$@o  o@$$$$$$$$$$$$$$$$$$$$$$@o   ",
"   o@$$@o  o@$$$$$$$$$$$$$$$$$$$$$$@o   ",
"   o@$$@o  o@$$$$$$$$$$$$$$$$$$$$$$@o   ",
"   o@$$@o  o@$$$$$$$$$$$$$$$$$$$$$$@o   ",
"   o+##+o  o+#$$$$$$$$$$$$$$$$$$$$#+o   ",
"   XO++OX  XO+@@@@@@@@@@@@@@@@@@@@+OX   ",
"   .XooX.  .XooooooooooooooooooooooX.   ",
"                                        ",
"                                        ",
"   .XooooooooooooooX.  .XooooooooooX.   ",
"   XO+@@@@@@@@@@@@+OX  XO+@@@@@@@@+OX   ",
"   o+#$$$$$$$$$$$$#+o  o+#$$$$$$$$#+o   ",
"   o@$$$$$$$$$$$$$$@o  o@$$$$$$$$$$@o   ",
"   o@$$$$$$$$$$$$$$@o  o@$$$$$$$$$$@o   ",
"   o@$$$$$$$$$$$$$$@o  o@$$$$$$$$$$@o   ",
"   o@$$$$$$$$$$$$$$@o  o@$$$$$$$$$$@o   ",
"   o+#$$$$$$$$$$$$#+o  o+#$$$$$$$$#+o   ",
"   XO+@@@@@@@@@@@@+OX  XO+@@@@@@@@+OX   ",
"   .XooooooooooooooX.  .XooooooooooX.   ",
"                                        ",
"                                        ",
"                                        "
};
