/* XPM */
static char *_d83e84ca14b49dcc1c45ad3d3537a9dimtktDj6gKqx9m3x[] = {
/* columns rows colors chars-per-pixel */
"40 40 40 1 ",
"  c #201208",
". c #1F1208",
"X c #1D1107",
"o c #33170E",
"O c #742824",
"+ c #752824",
"@ c #762825",
"# c #62231E",
"$ c #211208",
"% c #1E1107",
"& c #401A13",
"* c #B13838",
"= c #B23838",
"- c #B43939",
"; c #92302E",
": c #3F1A12",
"> c #AD3737",
", c #AE3737",
"< c #B03838",
"1 c #8F2F2D",
"2 c #1A1106",
"3 c #3D1911",
"4 c #8E2F2C",
"5 c #822B28",
"6 c #AF3737",
"7 c #A13433",
"8 c #9B3231",
"9 c #5A211B",
"0 c #59211B",
"q c #58211A",
"w c #6C2621",
"e c #1C1107",
"r c #1A1006",
"t c #3C1911",
"y c #B43839",
"u c #91302E",
"i c #4C1E17",
"p c #2D150C",
"a c #58211B",
"s c white",
/* pixels */
"                                        ",
"        .XXXXXXXXXXXXXXXXXXXXXXXX       ",
"       .oO+++++++++++++++++++++@#$      ",
"       %&*=====================-;$      ",
"       %:>,,,,,,,,,,,,,,,,,,,,,<1$      ",
"    .XX23>,,,,,,,,,,,,,,,,,,,,,<4%XXX   ",
"   .oO+O5,,,,,,,,,,,,,,,,,,,,,,67++@#$  ",
"   %&*==*,,,,,,,,,,,,,,,,,,,,,,,6==-;$  ",
"   %:>,,,,,,,,,,,,,,,,,,,,,,,,,,,,,<1$  ",
"   %:>,,,,,,6****************,,,,,,<1$  ",
"   %:>,,,,,6890000000000000qw>,,,,,<1$  ",
"   %:>,,,,,<4Xeeeeeeeeeeeeert>,,,,,<1$  ",
"   %:>,,,,,<1$             %:>,,,,,<1$  ",
"   %:>,,6**yu$             %&<***,,<1$  ",
"   %:>,68909i              .p00qw>,<1$  ",
"   %:>,<4XeeX               .eert>,<1$  ",
"   %:>,<1$                     %:>,<1$  ",
"   %:>,<4%XXXXXXXXXXXXXXXXXXXXX23>,<1$  ",
"   %:>,67++++++++++++++++++++++O5,,<1$  ",
"   %:>,,6=======================*,,<1$  ",
"   %:>,,,,,,,,,,,,,,,,,,,,,,,,,,,,,<1$  ",
"   %:>,,,,,,,,,,,,,,,,,,,,,,,,,,,,,<1$  ",
"   %:>,,,,,,,,,,,,,,,,,,,,,,,,,,,,,<1$  ",
"   %:>,,,,,,,,,,,,,,,,,,,,,,,,,,,,,<1$  ",
"   %:>,,,,,,,,,,,,,,,,,,,,,,,,,,,,,<1$  ",
"   %:>,,,,,,,,,,,,,,,,,,,,,,6****,,<1$  ",
"   %:>,,,,,,,,,,,,,,,,,,,,,6890qw>,<1$  ",
"   %:>,,,,,,,,,,,,,,,,,,,,,<4Xert>,<1$  ",
"   %:>,,,,,,,,,,,,,,,,,,,,,<1$ %:>,<1$  ",
"   %:>,,,,,,,,,,,,,,,,,,,,,<4%X23>,<1$  ",
"   %:>,,,,,,,,,,,,,,,,,,,,,67++O5,,<1$  ",
"   %:>,,,,,,,,,,,,,,,,,,,,,,6===*,,<1$  ",
"   %:>,,,,,,,,,,,,,,,,,,,,,,,,,,,,,<1$  ",
"   %:>,,,,,,,,,,,,,,,,,,,,,,,,,,,,,<1$  ",
"   %:>,,,,,,,,,,,,,,,,,,,,,,,,,,,,,<1$  ",
"   %:>,,,,,,,,,,,,,,,,,,,,,,,,,,,,,<1$  ",
"   %:>,,,,,,,,,,,,,,,,,,,,,,,,,,,,,<1$  ",
"   %&<*****************************yu$  ",
"   .pa000000000000000000000000000009i   ",
"    .eeeeeeeeeeeeeeeeeeeeeeeeeeeeeeeX   "
};
