/* XPM */
static char *result[] = {
/* columns rows colors chars-per-pixel */
"50 50 213 2 ",
"   c #010101",
".  c #070A04",
"X  c #1F040D",
"o  c #0F1102",
"O  c #191C03",
"+  c #131909",
"@  c #250F0D",
"#  c #2C0512",
"$  c #360718",
"%  c #3B081A",
"&  c #1E2B0F",
"*  c #293D14",
"=  c #2D3E1E",
"-  c #38391B",
";  c #3F2925",
":  c #44091E",
">  c #461A16",
",  c #413918",
"<  c #74350F",
"1  c #470A24",
"2  c #4C0A22",
"3  c #530C25",
"4  c #580B26",
"5  c #520E29",
"6  c #5C0D2A",
"7  c #521820",
"8  c #55112C",
"9  c #5C112E",
"0  c #5C1231",
"q  c #640E2C",
"w  c #6A0E2E",
"e  c #62102F",
"r  c #6C0F31",
"t  c #730E31",
"y  c #7C0F35",
"u  c #651335",
"i  c #6C1133",
"p  c #6A173A",
"a  c #6C1539",
"s  c #731034",
"d  c #7A1136",
"f  c #74153B",
"g  c #7C133A",
"h  c #72193E",
"j  c #4E2C25",
"k  c #572F24",
"l  c #483221",
"z  c #573527",
"x  c #702938",
"c  c #2D4316",
"v  c #2E4A13",
"b  c #31461B",
"n  c #324818",
"m  c #38541A",
"M  c #3E6319",
"N  c #354A21",
"B  c #3E5527",
"V  c #555F0C",
"C  c #4C4D11",
"Z  c #5A4515",
"A  c #715213",
"S  c #4D7A1F",
"D  c #6D7A0F",
"F  c #687814",
"G  c #4A5022",
"H  c #456723",
"J  c #51762E",
"K  c #527D29",
"L  c #4A6232",
"P  c #546F3A",
"I  c #671242",
"U  c #791943",
"Y  c #764F41",
"T  c #84133B",
"R  c #8B133E",
"E  c #93123F",
"W  c #842839",
"Q  c #90293E",
"!  c #BB5318",
"~  c #B76618",
"^  c #C05418",
"/  c #841641",
"(  c #8C1541",
")  c #881A48",
"_  c #931542",
"`  c #9B1444",
"'  c #941847",
"]  c #9D1749",
"[  c #94194A",
"{  c #9D194B",
"}  c #821950",
"|  c #9B1E51",
" . c #A31445",
".. c #A91447",
"X. c #A41749",
"o. c #AC154A",
"O. c #A3194D",
"+. c #AB194E",
"@. c #B3164C",
"#. c #BA164E",
"$. c #B2194F",
"%. c #A61B51",
"&. c #AC1B52",
"*. c #AC195B",
"=. c #BD1651",
"-. c #B41B53",
";. c #BB1A54",
":. c #B41E58",
">. c #BC1D59",
",. c #932250",
"<. c #AD215A",
"1. c #B4205B",
"2. c #BB215D",
"3. c #B71E6B",
"4. c #BD2361",
"5. c #C31752",
"6. c #C91754",
"7. c #C31A55",
"8. c #CB1956",
"9. c #C31D5A",
"0. c #CC1C5B",
"q. c #D01857",
"w. c #D31B5C",
"e. c #DB1A5D",
"r. c #E11B5F",
"t. c #C5205E",
"y. c #CB215F",
"u. c #C51F61",
"i. c #CC1F62",
"p. c #D41F61",
"a. c #DC1D61",
"s. c #DB1F6E",
"d. c #E41D63",
"f. c #EB1D65",
"g. c #EF1F69",
"h. c #F11D66",
"j. c #F41E6A",
"k. c #F91E6C",
"l. c #E41F72",
"z. c #F21F71",
"x. c #C72161",
"c. c #CD2263",
"v. c #CD2768",
"b. c #D42266",
"n. c #DB2164",
"m. c #D42669",
"M. c #DA2469",
"N. c #DB286F",
"B. c #C9237A",
"V. c #D42474",
"C. c #DC2373",
"Z. c #D7247D",
"A. c #DC227A",
"S. c #E62067",
"D. c #E4226A",
"F. c #EC226B",
"G. c #F4226D",
"H. c #F9206D",
"J. c #E42275",
"K. c #EB2173",
"L. c #EA2972",
"P. c #E22278",
"I. c #F32271",
"U. c #F72473",
"Y. c #F32A75",
"T. c #7C9116",
"R. c #568726",
"E. c #5E8D2F",
"W. c #61952F",
"Q. c #639A2D",
"!. c #699B38",
"~. c #709730",
"^. c #66A12A",
"/. c #69A52D",
"(. c #6EAF2D",
"). c #72A82C",
"_. c #72B12D",
"`. c #7EB428",
"'. c #72AB3A",
"]. c #73B434",
"[. c #79B737",
"{. c #6F9441",
"}. c #6D8A52",
"|. c #7C995F",
" X c #7DB547",
".X c #7BAA50",
"XX c #8F8D15",
"oX c #819112",
"OX c #899913",
"+X c #B79518",
"@X c #B69A18",
"#X c #91A617",
"$X c #9CBE1F",
"%X c #AEB318",
"&X c #A7BF1A",
"*X c #8CB923",
"=X c #98B822",
"-X c #A7C11B",
";X c #ACC319",
":X c #A7C629",
">X c #81BF45",
",X c #82A064",
"<X c #83C148",
"1X c #8DC954",
"2X c #8FC959",
"3X c #93CC55",
"4X c #95D15E",
"5X c #92C860",
"6X c #9AD465",
"7X c #9CC476",
"8X c #A4D477",
"9X c #A0C180",
"0X c #BDE498",
/* pixels */
"v.v.v.m.m.m.m.m.v.c.y.t.c.y.y.t.x.b.c.c.t.t.2.<.&.<.<.2.2.1.<.) U U U h U } ,.| <.4.v.N.N.L.Y.Y.Y.Y.",
"v.m.m.m.m.m.M.M.b.b.y.y.b.y.t.9.0.c.y.0.9.2.:.&.%.+.&.1.1.&.[ / I p p p U U ) | <.2.v.N.L.L.Y.Y.Y.Y.",
"v.v.b.m.m.M.m.M.b.b.b.c.y.y.9.9.7.0.9.7.;.&.&.{ { { O.%.| [ / h u u u u h U ,.| <.2.m.N.D.L.G.Y.Y.G.",
"v.b.b.m.M.m.M.n.b.b.p.i.0.t.>.:.:.:.-.$.+.X.{ _ / / / ( R g a 0 0 0 0 u p g ) O.1.t.b.D.D.L.G.Y.Y.G.",
"v.c.m.b.n.M.n.m.b.p.b.i.i.>.*.*.+.O.O.] ' _ _ g g d d f a u 9 8 5 8 0 u f / [ +.;.y.n.D.S.F.G.G.G.L.",
"c.v.b.b.m.b.m.n.b.s.i.c.u.>.&.+.O.] _ E T T g s i r u i 9 8 8 3 5 5 0 u f ( ] $.t.w.S.S.S.G.F.G.F.F.",
"c.c.v.b.m.b.b.n.m.i.i.i.u.:.*.` ' _ T g t w q 6 8 6 9 6 8 5 3 2 5 6 e i T ' *.;.0.p.S.S.F.G.F.F.F.F.",
"v.c.b.b.b.b.b.b.p.s.i.i.>.&.O.' _ T t w q 3 2 2 2 3 3 4 3 3 5 5 6 e r g _ X.;.6.p.S.S.S.F.S.S.S.S.S.",
"c.b.b.m.b.b.M.p.b.p.i.i.>.*.` _ T t w q 2 : : : : 2 3 3 4 3 4 4 q t y ( X.#.q.a.d.f.g.f.l.f.l.d.D.S.",
"b.b.b.b.b.b.s.b.p.b.i.u.>.+.` ( y w 4 2 : : % : : 2 3 4 q q w t y T _ ..#.i.a.f.g.g.f.l.d.d.d.d.S.S.",
"b.b.m.M.b.M.b.b.p.p.i.9.-.X._ T t q 4 2 : : : : 2 4 q w t y y T _ ` o.5.q.a.f.f.j.g.f.d.d.a.s.a.S.S.",
"x.x.i.c.p.b.b.b.p.p.i.9.$.] ( d w 6 4 2 2 : : 2 q w y T R E E  .@.#.6.q.d.f.z.k.k.g.d.d.a.a.a.e.a.n.",
":.:.1.:.>.2.9.9.9.9.7.;.+._ T s w 6 4 2 2 3 4 q t T `  ...@.#.6.q.q.r.f.z.z.k.k.z.j.d.a.a.w.w.s.p.r.",
"%.%.%.<.&.-.&.:.:.-.&.+.` / d r q 4 %   o @ 4 w y R ..6.q.q.e.r.d.f.h.h.k.k.k.k.k.h.d.a.q.i.q.w.p.r.",
"O.<.{ %.O.%.%.+.+.+.O.` ( g r q 4 3 $   V D @ X X # y f.f.h.k.j.z.k.k.k.k.k.z.k.k.h.a.q.6.6.6.q.e.r.",
"%.{ O.O.O.O.O.O.] ] ' _ g t w 6 3 4 $   D #Xm v v v k E R -.z.K.K.K.z.z.z.z.k.k.h.f.p.6.5.=.5.6.w.e.",
"%.%.%.%.O.O.O.] ] ' _ T d r 9 4 3 3 $   D $X_.)./._.M . . 8 C.C.J.K.K.z.z.k.k.h.f.r.q.5.#.#.#.6.q.e.",
"-.&.&.o.%.%.O.] ` _ R g s q 6 5 3 3 %   F :X3XJ n  X'.S S G 1 *.J.K.z.z.k.k.h.f.r.q.5.@.@...#.6.q.a.",
":.:.:.:.-.+.O.] ' ( T d : % % $ $ > > > XX=X{.b + P !.(.(.R.* h *.J.j.k.k.h.r.e.q.=.o... ...@.5.q.a.",
"9.9.>.;.:.%.%.] ' R T f           & Z ! +XoX+     . m (.(.(./.* 1 s.k.k.h.r.e.6.=.@. .`  .....5.q.e.",
"9.9.9.>.:.-.X.] _ T g s   o V A < , Z ^ +X=X!.= + J Q.(.(.(.(.R.G 5 @.h.r.e.6.5.@. .E E  ...@.6.q.r.",
"u.9.9.>.;.&.O.` _ T d i   O OX+X! Z Z ^ +X:X1XP b  X<X(.(.(.(.(.S . R f.r.q.5.@...E E E E ..#.6.a.f.",
"9.9.>.;.-.o.O.' R T d t   O OX+X! Z Z ^ +X:X*X/.^.(.(.(.(.(.(.(.S . T e.q.6.#... .E E E  ...5.q.r.h.",
">.>.:.-.&.o.O.` ( T d s   O OX+X! Z C Z XX;X*X*X(.(.(.(.(.(.(.(.Q.V 7 T #.5... .E E E  . .@.6.e.h.k.",
">.:.:.-.$.+.X.] _ T T T   O OX@X~ Z * * T.;X;X*X(.[.].(.(.(.(.(.(.(.v #  .@... .E E E  ...5.q.r.h.k.",
">.>.>.>.;.-.+.X.` _ R R   O OX%X%XV * * T.;X;X*X].2X<X(.(.(.(.(.(.(.v @ E .. . . .E  ...#.6.r.h.k.z.",
"0.i.0.i.9.7.7.$.o.O.` O.2 7 V T.&XT.R.D #X;X*X*X[.5X4X<X].(.(.(.^.S z w  . .` ` E  ...#.5.q.h.k.k.K.",
"M.d.D.d.s.a.p.0.;.$.o.$.=.X.$ C &X&X-X-X-X$X_.(.[.2X6X6X>X].(.(.R.v x ` E  .` `  ...@.5.q.r.h.k.z.l.",
"V.V.V.C.l.g.g.s.w.8.7.8.w.=.$ - ~.~.).*X`.`.(.(.(.!. X6X4X>X(.(.R.c - l >  .E  . ...5.6.r.h.k.z.K.l.",
"V.V.V.V.C.C.K.G.G.d.d.g.g.a.g j m R.W././.(.(.(./.W. X1X1X>X(.[.!.n L P - E  . ...@.6.q.r.h.k.h.l.P.",
"V.V.C.C.C.J.D.G.G.h.j.k.z.K.P.U . B E.E./.(.(.(.(.(.(.(.(.(.].1X.XN ,X9XG `  .....5.q.r.h.k.z.K.P.P.",
"M.C.C.N.J.K.K.j.j.F.j.k.G.J.Z.4.} l n E.W.Q.Q.Q.Q.Q.Q.Q.Q.'.1X6X5X.X7X7XB ` ....5.6.r.h.k.k.z.K.P.A.",
"C.C.J.J.K.F.I.G.j.h.h.H.H.G.J.C.B.I ; H H K E.E.E.E.R.J J E..X5X8X8X8X|.N  .o.@.5.q.r.h.k.j.K.K.J.P.",
"C.C.J.D.K.F.G.G.j.G.G.j.k.G.K.C.A.B.} . & B R.E.E.E.H c c b b .X8X0X}.c * @.#.5.6.e.f.k.k.z.K.J.P.P.",
"C.C.C.K.D.K.G.H.G.F.h.j.H.k.z.K.P.A.3.U ) x N * * * z W l L ,X7X7X}.Y x W 6.6.q.e.f.k.k.z.K.J.J.J.P.",
"C.C.C.J.K.K.G.H.j.h.F.h.h.k.k.k.z.K.K.F.J.>.2 $ $ $ T 9.z P 9X7X|.n W q.6.q.q.e.r.k.k.j.J.P.P.J.J.J.",
"F.F.F.F.G.G.G.H.H.G.S.F.g.F.h.k.H.H.H.H.H.F.e.q.6.6.8.y.z n G B B * Q q.q.w.e.r.h.k.z.P.P.A.A.A.P.K.",
"0.0.y.w.w.e.e.S.r.S.r.a.e.d.r.r.d.d.r.f.r.d.r.e.e.w.e.8.z * * * * * Q e.e.e.e.r.h.k.z.P.A.Z.A.A.P.I.",
"-.-.-.-.-.$.$.#.=.7.7.7.7.7.8.8.y.8.8.8.q.6.8.7.6.6.8.e.d.h.k.j.g.f.r.r.e.e.w.e.g.k.z.P.A.Z.A.A.J.z.",
"+.+.X.X.{ ] ] ] ` ` ` ` ]  .X.X.....@.o.@.@.@.$.@.=.=.8.r.h.k.k.k.j.h.r.e.e.e.e.d.k.z.P.Z.Z.A.P.I.k.",
"+.X.X.X.] _ E Q R T T T T T T R R E E E  .X. .X...$.@.7.q.f.H.G.z.k.j.f.a.w.w.w.e.f.k.K.P.A.P.K.k.g.",
"$.+.X.X.' _ R R T g g f s d d g d T T R E Q ` ` Q ..@.7.q.f.H.L.P.l.k.h.d.w.6.6.w.d.j.z.K.P.Y.U.j.a.",
"1.$.+.X.X.` E R T T g g d d d d g T T T R E E ` ....$.7.q.d.h.G.P.A.K.k.e.q.7.;.7.0.d.j.k.U.U.z.d.w.",
"7.t.2.-.$.O.o.Q ' E R R W T T T T T R R E E E  . .@.$.7.q.r.h.H.K.A.J.k.w.;.$.+.+.;.0.d.z.U.j.f.p.7.",
"y.y.y.8.7.7.;.$.$.+.X.X.E E ` E E R E E Q E ..Q ..$.#.8.w.r.h.H.z.J.K.j.8.+.] ' ] o.>.w.d.d.d.p.8.>.",
"w.w.w.y.y.0.y.0.t.8.t.8.t.=.-.$.+...X.X... ...o.@.#.7.8.e.S.h.H.H.I.I.a.&._ / / ( ] &.>.i.p.p.0.7.;.",
"a.a.n.w.w.p.w.w.w.w.w.y.y.8.t.7.;.$.$.o.@.@.$.$.$.7.0.e.S.f.h.H.H.H.F.>._ U f f U _ O.-.>.7.7.>.>.:.",
"n.n.n.n.n.n.n.a.a.n.a.w.q.8.t.7.;.;.$.$.$.$.$.$.7.7.w.a.f.G.G.H.H.F.p.O./ a i a U ( ] %.:.:.>.>.>.>.",
"y.m.n.n.n.n.n.n.d.n.n.a.w.y.7.7.;.-.$.$.$.$.$.;.7.8.w.n.h.G.G.G.G.M.9.' f u u a U / ' %.&.&.-.:.>.>.",
"y.p.p.m.n.n.n.n.n.d.a.w.w.0.7.7.;.$.$.$.$.$.$.;.7.y.n.S.G.G.G.Y.D.b.:.) f u u a f ) ' { %.&.:.:.>.7."
};
