/* XPM */
static char *_d7d7c28af8744acf9654bb2e3e697eeeTKETQsIJv0P2aMZ[] = {
/* columns rows colors chars-per-pixel */
"50 50 12 1 ",
"  c black",
". c #21110D",
"X c #402717",
"o c #573A23",
"O c #3A6B60",
"+ c #AC7B5D",
"@ c #1D438A",
"# c #2C65B5",
"$ c #787E97",
"% c #5CBB8E",
"& c #A4A8B5",
"* c #C1AC8F",
/* pixels */
"%%%%%%%%%%%%%%%%%%%%%%%%%%%%%%%%%%%%%%%%%%%%%%%%%%",
"%%%%%%%%%%%%%%%%%%%%%%%%%%%%%%%%%%%%%%%%%%%%%%%%%%",
"%%%%%%%%%%%%%%%%%%%%%%%%%%%%%%%%%%%%%%%%%%%%%%%%%%",
"%%%%%%%%%%%%%%%%%%%%%%%%%%%%%%%%%%%%%%%%%%%%%%%%%%",
"%%%%%%%%%%%%%%%%%%%%%%%%%%%%%%%%%%%%%%%%%%%%%%%%%%",
"%%%%%%%%%%%%%%%%%%%%%%%%%%%%%%%%%%%%%%%%%%%%%%%%%%",
"%%%%%%%%%%%%%%%%%%%%%%%%%%%%%%%%%%%%%%%%%%%%%%%%%%",
"%%%%%%%%%%%%%%%%%%%%%%%%%%%%%%%%%%%%%%%%%%%%%%%%%%",
"%%%%%%%%%%%%%%%%%%%%%%%%%%%%%%%%%%%%%%%%%%%%%%%%%%",
"%%%%%%%%%%%%%%%%%%%%%%%%%%%%%%%%%%%%%%%%%%%%%%%%%%",
"%%%%%%%%%%%%%%%%%%%%%%%%%%%%%%%%%%%%%%%%%%%%%%%%%%",
"%%%%%%%%%%%%%%%%%%%%%%%%%%%%%%%%%%%%%%%%%%%%%%%%%%",
"%%%%%%%%%%%%%%%%%%%%%%%%%%%%%%%%%%%%%%%%%%%%%%%%%%",
"%%%%%%%%%%%%%%%%%%%%%%%%%%%%%%%%%%%%%%%%%%%%%%%%%%",
"%%%%%%%%%%%%%%%%%%%%    %  %%%%%%%%%%%%%%%%%%%%%%%",
"%%%%%%%%%%%%%%%%%%%% ooX o   %%%%%%%%%%%%%%%%%%%%%",
"%%%%%%%%%%%%%%%%%%%%  ooXoXoo %%%%%%%%%%%%%%%%%%%%",
"%%%%%%%%%%%%%%%%%%% Xooooooooo %%%%%%%%%%%%%%%%%%%",
"%%%%%%%%%%%%%%%%%% Xooooooooooo %%%%%%%%%%%%%%%%%%",
"%%%%%%%%%%%%%%%%%% XooXoooXXooo %%%%%%%%%%%%%%%%%%",
"%%%%%%%%%%%%%%%%%% XXXXoooX++XoX %%%%%%%%%%%%%%%%%",
"%%%%%%%%%%%%%%%%%% XoXXooX++++XX %%%%%%%%%%%%%%%%%",
"%%%%%%%%%%%%%%%%%% Xoo+Xo+.**. X %%%%%%%%%%%%%%%%%",
"%%%%%%%%%%%%%%%%%% XXo++X*.**.  %%%%%%%%%%%%%%%%%%",
"%%%%%%%%%%%%%%%%%%% XX++****** %%%%%%%%%%%%%%%%%%%",
"%%%%%%%%%%%%%%%%%%%% XXX+****+ %%%%%%%%%%%%%%%%%%%",
"%%%%%%%%%%%%%%%%%%%%% XXo$$$X %%%%%%%%%%%%%%%%%%%%",
"%%%%%%%%%%%%%%%%%%%% XXoo$$&X  %%%%%%%%%%%%%%%%%%%",
"%%%%%%%%%%%%%%%%%%% **Xoo$&&X++ %%%%%%%%%%%%%%%%%%",
"%%%%%%%%%%%%%%%%%%% **Xoo###X++ %%%%%%%%%%%%%%%%%%",
"%%%%%%%%%%%%%%%%%%%%  @##@##   %%%%%%%%%%%%%%%%%%%",
"%%%%%%%%%%%%%%%%%%%OO Xo  Xo OOO%%%%%%%%%%%%%%%%%%",
"%%%%%%%%%%%%%%%%%%%OOOOOOOOOOOOO%%%%%%%%%%%%%%%%%%",
"%%%%%%%%%%%%%%%%%%%%OOOOOOOOOOO%%%%%%%%%%%%%%%%%%%",
"%%%%%%%%%%%%%%%%%%%%%%%%%%%%%%%%%%%%%%%%%%%%%%%%%%",
"%%%%%%%%%%%%%%%%%%%%%%%%%%%%%%%%%%%%%%%%%%%%%%%%%%",
"%%%%%%%%%%%%%%%%%%%%%%%%%%%%%%%%%%%%%%%%%%%%%%%%%%",
"%%%%%%%%%%%%%%%%%%%%%%%%%%%%%%%%%%%%%%%%%%%%%%%%%%",
"%%%%%%%%%%%%%%%%%%%%%%%%%%%%%%%%%%%%%%%%%%%%%%%%%%",
"%%%%%%%%%%%%%%%%%%%%%%%%%%%%%%%%%%%%%%%%%%%%%%%%%%",
"%%%%%%%%%%%%%%%%%%%%%%%%%%%%%%%%%%%%%%%%%%%%%%%%%%",
"%%%%%%%%%%%%%%%%%%%%%%%%%%%%%%%%%%%%%%%%%%%%%%%%%%",
"%%%%%%%%%%%%%%%%%%%%%%%%%%%%%%%%%%%%%%%%%%%%%%%%%%",
"%%%%%%%%%%%%%%%%%%%%%%%%%%%%%%%%%%%%%%%%%%%%%%%%%%",
"%%%%%%%%%%%%%%%%%%%%%%%%%%%%%%%%%%%%%%%%%%%%%%%%%%",
"%%%%%%%%%%%%%%%%%%%%%%%%%%%%%%%%%%%%%%%%%%%%%%%%%%",
"%%%%%%%%%%%%%%%%%%%%%%%%%%%%%%%%%%%%%%%%%%%%%%%%%%",
"%%%%%%%%%%%%%%%%%%%%%%%%%%%%%%%%%%%%%%%%%%%%%%%%%%",
"%%%%%%%%%%%%%%%%%%%%%%%%%%%%%%%%%%%%%%%%%%%%%%%%%%",
"%%%%%%%%%%%%%%%%%%%%%%%%%%%%%%%%%%%%%%%%%%%%%%%%%%"
};
