/* XPM */
static char *_cb800e1f7f4419c8c62b5e10723eb1dsWiSNBWtyemv6PkR[] = {
/* columns rows colors chars-per-pixel */
"40 40 185 2 ",
"   c #201309",
".  c #24180F",
"X  c #241712",
"o  c #261914",
"O  c #271A19",
"+  c #281B1A",
"@  c #2A221C",
"#  c #2C1D22",
"$  c #2D2621",
"%  c #2E2823",
"&  c #2E222B",
"*  c #2F2A2D",
"=  c #31252E",
"-  c #312A2B",
";  c #2F2832",
":  c #332633",
">  c #332B35",
",  c #362C3B",
"<  c #392C3D",
"1  c #343336",
"2  c #33373D",
"3  c #362D40",
"4  c #382D41",
"5  c #3A3246",
"6  c #3C344B",
"7  c #353D4D",
"8  c #3D3A4D",
"9  c #3E3751",
"0  c #3E3A53",
"q  c #403C4F",
"w  c #423C54",
"e  c #394849",
"r  c #3F4355",
"t  c #3B4757",
"y  c #37455C",
"u  c #3B445B",
"i  c #3A4B5E",
"p  c #36555C",
"a  c #3F655E",
"s  c #344B64",
"d  c #3B4B61",
"f  c #3C5564",
"g  c #3C5C66",
"h  c #365469",
"j  c #355A6C",
"k  c #3C5D6A",
"l  c #2E5F74",
"z  c #3B606A",
"x  c #3A696C",
"c  c #3F7269",
"v  c #2A6379",
"b  c #2D6E7D",
"n  c #3A6570",
"m  c #336875",
"M  c #3B6B73",
"N  c #3D6F78",
"B  c #3C7676",
"V  c #3D7679",
"C  c #3A7C7C",
"Z  c #434556",
"A  c #45445A",
"S  c #4C455E",
"D  c #434B59",
"F  c #4D4D5C",
"G  c #4E5C55",
"H  c #40535D",
"J  c #405D5D",
"K  c #4E4860",
"L  c #405E60",
"P  c #55566B",
"I  c #585268",
"U  c #5D5A6E",
"Y  c #595A71",
"T  c #615C70",
"R  c #426262",
"E  c #406B67",
"W  c #416B6C",
"Q  c #4B686A",
"!  c #437567",
"~  c #42736B",
"^  c #497F6D",
"/  c #57716B",
"(  c #527E6E",
")  c #5B6377",
"_  c #437B75",
"`  c #676777",
"'  c #60667A",
"]  c #3E937C",
"[  c #43826F",
"{  c #438572",
"}  c #458871",
"|  c #4C8974",
" . c #528A73",
".. c #449274",
"X. c #449779",
"o. c #449C7D",
"O. c #549B79",
"+. c #648671",
"@. c #638B74",
"#. c #62847E",
"$. c #6A9779",
"%. c #67997D",
"&. c #6E997A",
"*. c #49A67E",
"=. c #2B7A87",
"-. c #2C7984",
";. c #2B7E88",
":. c #6C7484",
">. c #6C7C89",
",. c #727883",
"<. c #737F90",
"1. c #2D868C",
"2. c #2D8A8C",
"3. c #3A8583",
"4. c #328B89",
"5. c #3E9E85",
"6. c #39948C",
"7. c #298C92",
"8. c #2C9494",
"9. c #2F9A96",
"0. c #359992",
"q. c #3CA28D",
"w. c #3EAC8A",
"e. c #35A295",
"r. c #3AA593",
"t. c #36AD97",
"y. c #3CAB93",
"u. c #39AA99",
"i. c #3EBB95",
"p. c #3BB698",
"a. c #3EBAA0",
"s. c #4D8F81",
"d. c #7B868F",
"f. c #758392",
"g. c #47AD81",
"h. c #42AE8B",
"j. c #46B383",
"k. c #47BC87",
"l. c #42B68D",
"z. c #44BD8D",
"x. c #49BF89",
"c. c #46AA95",
"v. c #42BE92",
"b. c #4BBE93",
"n. c #44B799",
"m. c #66AB81",
"M. c #73AB81",
"N. c #79AF82",
"B. c #6AB384",
"V. c #76BC89",
"C. c #46C38C",
"Z. c #4AC38A",
"A. c #49C98C",
"S. c #56CF8F",
"D. c #43C392",
"F. c #51C991",
"G. c #5DD393",
"H. c #62C88F",
"J. c #75CD8F",
"K. c #6ACE9C",
"L. c #69D598",
"P. c #71D29D",
"I. c #7CE498",
"U. c #888895",
"Y. c #98939F",
"T. c #8A9FAC",
"R. c #9796A0",
"E. c #90A5B1",
"W. c #9FB0B8",
"Q. c #ABB2BA",
"!. c #B1B2BA",
"~. c #82C38B",
"^. c #85DA98",
"/. c #84E69B",
"(. c #AABCC3",
"). c #ABC3C3",
"_. c #B1C4CA",
"`. c #C6C4CA",
"'. c #CDD0D4",
"]. c #CFD7D8",
"[. c #D1D6D8",
"{. c #DAE4E4",
"}. c #E1F3EE",
"|. c #EEF4F2",
" X c #F7FFFC",
/* pixels */
"                                                                                ",
"                                                                                ",
"                                                                                ",
"                                                                                ",
"              @ $ $ $ .       @ $ $ $ .       @ $ $ $ .       @ $ $ $ .         ",
"              @ % % % .       @ % % % .       @ % % % .       @ % % % .         ",
"              @ % % % .       @ % % % .       @ % % % .       @ % % % .         ",
"              @ $ $ $ .       @ $ $ $ .       @ $ $ $ .       @ $ $ $ .         ",
"      @ $ $ $ .       @ $ $ $ .       @ $ $ $ .       @ $ $ $ .                 ",
"      @ % % % .       @ % % % .       @ % % % .       @ % % % .                 ",
"      @ % % % .       @ % % % .       @ % % % .       @ % % % .                 ",
"      @ $ $ $ .       @ $ $ $ .       @ $ $ $ .       @ $ $ $ .                 ",
"              @ $ $ $ .       @ $ $ $ .       @ $ $ $ .       @ $ $ $ .         ",
"              @ % % % .       @ % % % .       @ % % % .       @ % % % .         ",
"              @ % % % .       @ % % % .       @ % % % .       @ % % % .         ",
"              @ $ $ $ .   . X $ % % $ .       @ $ $ $ .       @ % % % X .       ",
"      @ $ $ $ .       @ $ > 4 3 4 : . @ % $ $ .       @ $ $ $ . $ < < 4 :       ",
"      @ % % % .       $ > G +.+.( a - $ % % % .       @ % % % & G @.+.( a * X   ",
"      @ % % % .       % 5 @././.H...r > - - - O X X X % - - - 5 +.^.^.G.o.r #   ",
"      @ $ $ $ .       $ 6 ^ F.n._ Z 0 6 6 6 6 5 5 5 5 6 6 6 6 9 Z Q c.a.6.r #   ",
"              @ $ $ $ + 5 H c x M V { {  .$.&.&.$.|  .$.| [ { { B N n n k 0 #   ",
"              @ % % % o > 6 0 i 3.i.C.A.G.I././.I.S.G.I.S.A.Z.A.D.0.f 0 6 < +   ",
"              @ % % % . . = i 6.l.C.Z.Z.x.Z.Z.Z.Z.Z.Z.Z.Z.C.Z.x.Z.l.2.h < X     ",
"              @ $ $ $ .   & H h.D.Z.Z.} R E 5.p.y._ R E q.D.j.c ..z.8.j < .     ",
"      @ $ $ $ .       @ $ , t [ j.A.Z.{ d 9 n 3.C u 0 n 0.q.| ,.#.] 2.j < .     ",
"      @ % % % .       @ % , w F | k.C.y.3.D A D Z Z W 0.e.V ` [.R.i ;.j < .     ",
"      @ % % % .       @ % > I !.d.x r.V / V.~.B.*.V.%.f i d.'.|.Y.y ;.j < .     ",
"      @ $ $ $ .       @ $ ; T {.`.f._ i F &.J.L.Z.m./ w Y Q. X}.U.y ;.j , .     ",
"              @ $ $ $ X X & U ]. X'.U 0 0 i o.A.k.E 0 A f._.{.).>.g 4.M 8 O     ",
"              @ % % % o , 5 P ).}.{.T.P f 6.l.Z.C.r.N w A <.E.) ^ j.l.y.C 8 +   ",
"              @ % % - 2 ! L A :.W.(.:.S u M ~ ! ~ M f 6 6 K ) N 5.A.Z.D.h.{ e # ",
"              @ $ $ > D g.{ 6 6 ' >.d y d i i y y y i d d i z r.v.Z.C.z.D.z.E , ",
"      @ $ $ $ .     # t *.[ 9 0 w d v =.1.1.1.1.1.1.1.1.1.8.r.z.Z.z.u.u.u.r.z > ",
"      @ % % % .     X 1 J D u m b b ;.8.n.K.b.b.P.P.P.K.b.i.D.Z.D.q.M k k k 2 o ",
"      @ % % % .       $ , < 7 m 4.e.9.4.s.M.O.O.M.N.N.M.O...X.w.t.4.u < : : o   ",
"      @ $ $ $ .       @ $ $ - 6 { v.r.z 8 w 8 8 8 8 8 q 8 8 t -.7.-.u &         ",
"                            o 5 C q.g > O O + O O O O O + O $ t l v 0 &         ",
"                            . & p n 0 +                       & 7 s 0 &         ",
"                                : 0 9 &                         = 9 6 &         ",
"                                                                                "
};
