/* XPM */
static char *_4706976cb974ac5961316a44fd3e758aO5MBYH7DhD0PHGW[] = {
/* columns rows colors chars-per-pixel */
"40 40 185 2 ",
"   c #201309",
".  c #24180F",
"X  c #241711",
"o  c #261914",
"O  c #271B18",
"+  c #291C1B",
"@  c #2B231C",
"#  c #2B1E23",
"$  c #2D2621",
"%  c #2E2823",
"&  c #2E2329",
"*  c #31252D",
"=  c #31292B",
"-  c #322732",
";  c #332B33",
":  c #362E3B",
">  c #382D3E",
",  c #35323E",
"<  c #393A3E",
"1  c #382D41",
"2  c #363641",
"3  c #3A3245",
"4  c #383B41",
"5  c #3C344B",
"6  c #3C384E",
"7  c #3E3650",
"8  c #3E3A52",
"9  c #423D54",
"0  c #433F58",
"q  c #374A49",
"w  c #3E4155",
"e  c #3B4B53",
"r  c #3D455A",
"t  c #344858",
"y  c #3D4B5D",
"u  c #3E5A5A",
"i  c #354C64",
"p  c #3B4E61",
"a  c #2F586F",
"s  c #3C5363",
"d  c #355867",
"f  c #32566C",
"g  c #3A5C69",
"h  c #3A5C6A",
"j  c #2B5C74",
"k  c #3F6963",
"l  c #39686E",
"z  c #3F736D",
"x  c #2E6577",
"c  c #2C6B7D",
"v  c #346271",
"b  c #3C6674",
"n  c #3B6C73",
"m  c #306E7C",
"M  c #357376",
"N  c #3B7275",
"B  c #31717C",
"V  c #3A767A",
"C  c #3A7D7C",
"Z  c #43444D",
"A  c #424255",
"S  c #454058",
"D  c #424C59",
"F  c #494C59",
"G  c #41555D",
"H  c #4B545D",
"J  c #42595E",
"K  c #505A5F",
"L  c #484C63",
"P  c #4F5167",
"I  c #45536A",
"U  c #455668",
"Y  c #4F586F",
"T  c #565469",
"R  c #5A556A",
"E  c #545B6E",
"W  c #585D72",
"Q  c #426E66",
"!  c #4E6369",
"~  c #43746A",
"^  c #4A776B",
"/  c #437B6D",
"(  c #5C7D6C",
")  c #516170",
"_  c #457F7B",
"`  c #54747E",
"'  c #3C817C",
"]  c #3A8979",
"[  c #43826F",
"{  c #448471",
"}  c #4B8574",
"|  c #438A72",
" . c #4A847C",
".. c #5E8570",
"X. c #588878",
"o. c #459376",
"O. c #439879",
"+. c #459D7B",
"@. c #5C9075",
"#. c #658B74",
"$. c #698972",
"%. c #609277",
"&. c #6E997A",
"*. c #46A37D",
"=. c #46A87F",
"-. c #52A07C",
";. c #2E7782",
":. c #2C7D87",
">. c #277A89",
",. c #587982",
"<. c #6D7C8E",
"1. c #727D8D",
"2. c #2B848C",
"3. c #3A8583",
"4. c #318885",
"5. c #3A8985",
"6. c #3B8F8A",
"7. c #3E9783",
"8. c #39928B",
"9. c #3C9B8A",
"0. c #298A90",
"q. c #399D92",
"w. c #3CA88D",
"e. c #3CAD91",
"r. c #38A799",
"t. c #35A99B",
"y. c #3EB492",
"u. c #3EB997",
"i. c #3BB59B",
"p. c #419D82",
"a. c #678181",
"s. c #6F8292",
"d. c #7E8B95",
"f. c #7F8898",
"g. c #44AB84",
"h. c #47B584",
"j. c #47B986",
"k. c #48BD87",
"l. c #41B38D",
"z. c #47BE8A",
"x. c #49BE88",
"c. c #51B484",
"v. c #40B490",
"b. c #43B997",
"n. c #75AD82",
"m. c #61B886",
"M. c #3DC09C",
"N. c #47C48C",
"B. c #4AC48B",
"V. c #47CB8D",
"C. c #4BC98C",
"Z. c #50CE8F",
"A. c #44C292",
"S. c #4FC690",
"D. c #5DC499",
"F. c #7DC58D",
"G. c #73CF90",
"H. c #6DDA94",
"J. c #71DC95",
"K. c #79DD9B",
"L. c #6AE2A0",
"P. c #828A94",
"I. c #87919D",
"U. c #91939F",
"Y. c #8599A4",
"T. c #8C9BA8",
"R. c #9898A4",
"E. c #A4A3AC",
"W. c #ABA8B2",
"Q. c #ACB1B6",
"!. c #88D996",
"~. c #82E59A",
"^. c #89E198",
"/. c #B7BDC2",
"(. c #B2C4CB",
"). c #B8CACA",
"_. c #BED0D1",
"`. c #C8D7DA",
"'. c #D3D8D9",
"]. c #CAE3DE",
"[. c #DFE6E6",
"{. c #E7EAEA",
"}. c #EDF5F2",
"|. c #EDF8F4",
" X c #F0FFF9",
/* pixels */
"                                                                                ",
"                                                                                ",
"                                                                                ",
"                                                                                ",
"              @ $ $ $ .       @ $ $ $ .       @ $ $ $ .       @ $ $ $ .         ",
"              @ % % % .       @ % % % .       @ % % % .       @ % % % .         ",
"              @ % % % .       @ % % % .       @ % % % .       @ % % % .         ",
"              @ $ $ $ .       @ $ $ $ .       @ $ $ $ .       @ $ $ $ .         ",
"      @ $ $ $ .       @ $ $ $ .       @ $ $ $ .       @ $ $ $ .                 ",
"      @ % % % .       @ % % % .       @ % % % .       @ % % % .                 ",
"      @ % % % .       @ % % % .       @ % % % .       @ % % % .                 ",
"      @ $ $ $ .       @ $ $ $ .       @ $ $ $ .       @ $ $ $ X . X X .         ",
"              @ $ $ $ .       @ $ $ $ .       @ $ $ $ .       $ : 1 3 > #       ",
"              @ % % % .   + # - ; = % .       @ % % % .     X < ( $...^ q #     ",
"              @ % % % X + Z H H D 4 = O X X X $ = = = O X X & F n.!.K.S.~ 1 X   ",
"              @ $ $ $ # Z n.!.F.c.Q 5 3 3 3 3 5 5 5 5 3 3 3 5 9 F  .b.i.n 1 X   ",
"      @ $ $ $ .       * D m.L.D.} N V { @.&.&.&.%.} %.%.{ [ { { V n b n p 3 X   ",
"      @ % % % .       ; A | 9.3.g ' u.N.H.~.~.~.H.C.J.H.C.B.B.N.u.' r 8 5 ; .   ",
"      @ % % % .       ; 8 A w s 8.y.N.N.B.C.C.C.B.N.B.B.N.N.N.N.N.w.;.r &       ",
"      @ $ $ $ .       $ ; 5 s 5.v.N.B.N.N.N.N.N.N.B.N.N.C.B.N.B.C.e.:.r &       ",
"              @ $ $ $ . . > n u.N.B.N.N.=.o.o.g.A.b.*.o.o.l.A.z.O.4.:.r &       ",
"              @ % % % . X 1 ~ N.j.k.B.N./ 8 w C r.q.g 8 y 8.u.g.! b ;.r &       ",
"              @ % % % . X 1 / h.k | C.B.w.V 8 r s p 8 s 6.t.] ! Q.I.r 8 &       ",
"              @ $ $ $ . X 1 u } P.a.] l.9._ #.$.( ~ ..X.C M ,.R.{.E.5 7 &       ",
"      @ $ $ $ .       @ % 3 5 R '.W.) 6.g K F.^.J.B.G.&.9 0 U.}.|.R.7 7 &       ",
"      @ % % % .       @ = 3 5 R '.}./.E 8 9 H -.Z.x.^ S S <.(.}.].d.7 7 &       ",
"      @ % % % .       $ > 5 5 T ). X[.f.P r V g.V.N.7.g 9 W T.(.P.` V V e #     ",
"      @ $ $ $ .     o < G A 8 I Y._.`.Y.E y 5.p.*.+.9.N 8 5 E s.U C i.i.' e $ . ",
"              @ $ $ > Q =.G i j L 1.Y.P 8 8 r r r r r w 8 8 9 L 6.y.z.N.z.+.w # ",
"              @ % % 3 ~ j.J f >.j I Y f x B m m c m m m B B B 5.l.O.~ e.M.9.r # ",
"              @ % % : u { D i B 4.M g a x B B B B B B B B m 2.t.y.z w V 3.N 2 + ",
"              @ $ $ $ & 6 5 5 y g.y.5.w 5 6 6 6 6 6 6 6 6 5 d 2.0.v 8 6 8 , X   ",
"      @ $ $ $ .       $ = = : y 9.3.e ; = = = + + + + & = = 2 i c f 3 # o o     ",
"      @ % % % .       @ % % = , l s 1 $ % % % .       @ % % = ; t r 3 X         ",
"      @ % % % .       @ % % % O 3 8 3 $ % % % .       @ % % % o 3 8 3 X         ",
"      @ $ $ $ .       @ $ $ $ .       @ $ $ $ .       @ $ $ $ .                 ",
"                                                                                ",
"                                                                                ",
"                                                                                ",
"                                                                                "
};
