/* XPM */
static char *_7ebe1e78d924808c5efd1a2db4122beERO4TfotSN6Ozfpb[] = {
/* columns rows colors chars-per-pixel */
"40 40 196 2 ",
"   c #201209",
".  c #24180F",
"X  c #241712",
"o  c #251912",
"O  c #2A1D13",
"+  c #271A19",
"@  c #291B1B",
"#  c #2D2017",
"$  c #2B231C",
"%  c #33271E",
"&  c #2C1E27",
"*  c #2D2621",
"=  c #2E2823",
"-  c #2E212A",
";  c #302925",
":  c #382D24",
">  c #32242F",
",  c #30292A",
"<  c #3C3127",
"1  c #3B322A",
"2  c #2F2432",
"3  c #332631",
"4  c #332B34",
"5  c #362D3A",
"6  c #382C3D",
"7  c #3D3634",
"8  c #34323B",
"9  c #463B33",
"0  c #46423D",
"q  c #49443F",
"w  c #3A2E43",
"e  c #3B3246",
"r  c #3A3C41",
"t  c #3C354B",
"y  c #3E3A4B",
"u  c #3E3750",
"i  c #3D3B54",
"p  c #403B49",
"a  c #413B54",
"s  c #453F58",
"d  c #33404F",
"f  c #3D4455",
"g  c #344359",
"h  c #3A445B",
"j  c #3B4A5E",
"k  c #3C5351",
"l  c #3D5C5D",
"z  c #324E66",
"x  c #394A60",
"c  c #2F596F",
"v  c #3C5463",
"b  c #3B5C67",
"n  c #35556A",
"m  c #3A5C6B",
"M  c #325D70",
"N  c #3B636E",
"B  c #2A677B",
"V  c #326274",
"C  c #346C77",
"Z  c #3A7677",
"A  c #454547",
"S  c #534A42",
"D  c #524D49",
"F  c #55524C",
"G  c #454455",
"H  c #46485A",
"J  c #414E5A",
"K  c #42535C",
"L  c #4C545D",
"P  c #415A5F",
"I  c #5A5753",
"U  c #645F59",
"Y  c #68615A",
"T  c #4C4A63",
"R  c #465B64",
"E  c #565A6E",
"W  c #5A5E72",
"Q  c #635F6F",
"!  c #426563",
"~  c #496C67",
"^  c #556F67",
"/  c #437A6A",
"(  c #467A6B",
")  c #557366",
"_  c #5B746A",
"`  c #5D6173",
"'  c #57737A",
"]  c #6D6963",
"[  c #716B64",
"{  c #76726C",
"}  c #7A756E",
"|  c #6C6B7C",
" . c #706D7D",
".. c #7B7670",
"X. c #3C877A",
"o. c #43826E",
"O. c #478873",
"+. c #538B73",
"@. c #5C8E75",
"#. c #479779",
"$. c #5A9176",
"%. c #648A73",
"&. c #659478",
"*. c #6D9A7A",
"=. c #47AA7F",
"-. c #6FA17B",
";. c #72A77F",
":. c #85827C",
">. c #88857F",
",. c #2B7885",
"<. c #307F87",
"1. c #5B7681",
"2. c #687386",
"3. c #787485",
"4. c #82798C",
"5. c #2B848C",
"6. c #3A8481",
"7. c #398984",
"8. c #358E89",
"9. c #2D908F",
"0. c #3A948B",
"q. c #3A9B8E",
"w. c #278690",
"e. c #2A8C91",
"r. c #2C9293",
"t. c #2F9994",
"y. c #2F9B98",
"u. c #319A91",
"i. c #3DA58A",
"p. c #3BAC8E",
"a. c #3CB18E",
"s. c #37AA97",
"d. c #3EB996",
"f. c #3CB398",
"g. c #6C8084",
"h. c #738595",
"j. c #44A883",
"k. c #42AD8A",
"l. c #44B285",
"z. c #4AB986",
"x. c #48BC87",
"c. c #41B48E",
"v. c #45BC8B",
"b. c #56B786",
"n. c #44B592",
"m. c #41BC93",
"M. c #58B892",
"N. c #65B690",
"B. c #47C28B",
"V. c #49C48A",
"C. c #47C88C",
"Z. c #49C98C",
"A. c #55C68B",
"S. c #45C692",
"D. c #59D291",
"F. c #65C48B",
"G. c #7BC78D",
"H. c #68D492",
"J. c #69D893",
"K. c #7AD995",
"L. c #7FE499",
"P. c #8A8886",
"I. c #808E98",
"U. c #9C9B95",
"Y. c #A5A49F",
"T. c #879BA8",
"R. c #A09BA8",
"E. c #8FA1AC",
"W. c #A5A7A3",
"Q. c #ACAEAA",
"!. c #B3B4AF",
"~. c #A6AAB2",
"^. c #A5B7BF",
"/. c #B8BAB6",
"(. c #81CB8F",
"). c #88D493",
"_. c #85E398",
"`. c #BCC0BC",
"'. c #C0C2BE",
"]. c #A7C0C0",
"[. c #B6C6CB",
"{. c #C4C8C6",
"}. c #CACECA",
"|. c #C9D5D6",
" X c #D5D9D7",
".X c #DCE2DE",
"XX c #DAE5E3",
"oX c #E1E6E3",
"OX c #E5EAE7",
"+X c #E6ECEA",
"@X c #E8EFEC",
"#X c #EAF1EE",
"$X c #EFF6F3",
"%X c #EEFAF5",
"&X c #F0F7F4",
"*X c #F6FCFA",
/* pixels */
"                                                                                ",
"                                                                                ",
"            : S S S 9                                                           ",
"          . :.oXoXOX!.:                                                         ",
"        # P. X&X&X&X+XQ.S     $ * * * .       $ * * * .       $ * * * .         ",
"      < } XX&X&X&X&X&X&X[     $ = = = .       $ = = = .       $ = = = .         ",
"      } #X&X&X&X&X&X&X#X]     $ = = = .       $ = = = .       $ = = = .         ",
"      ..&X&X&X&X&X&X&X$X[     $ * * * .       $ * * * .       $ * * * .         ",
"    U /.&X&X&X&X&X&XoXU.F * * .     @ 3 4 4 , .       $ * * * .     @ & & & +   ",
"    '.&X&X&X&X&X&XOXY.1 = = = .   @ A L L J r + X X X = , , , + X + A L L J 8 X ",
"    '.&X&X&X&X&X$XP.% $ = = = . @ p ;.).G.b./ e e e e t t t t e w y -.).G.b./ 6 ",
"    .X&X&X&X&X&X&X}   $ * = 3 + X 4 ) %.&.n.j.o.o.$.*.*.+.+.*.+.o.O.M.N.%.( P t ",
"    &X&X&X&X&X@X{.] * . X 7 Q p * * w i b 6.k.Z.Z.F.(._.D.A.G.A.C.C.d.7.j i t 6 ",
"    &X&X&X&X&X|.F ; = o -  .|.3.8 , e N 0.v / B.B.( R z.Z.#.R #.V.B.V.p.<.j 3 . ",
"    &X&X&X&X&X}.0 = = o 2 3.+X|.P.e e j v i f ! ! f j i.X.' ~.g.o.x.V.a.5.x >   ",
"    &X&X&X&X&X}.0 * * o 2 | XX*X{.` s L _ _ ~ ! _ L h Z 1.R.+X4.l x.Z.a.5.x >   ",
"    &X&X&X&X&X}.<     $ 5 ` ].XX|.T.T _ )._.H.A.K.%.u H ~.&X+X3.l x.V.a.5.x >   ",
"    &X&X&X&X&X}.<     $ = r W E.T.E a G ^ b.D.z.) G T h.|.%X|.| l x.Z.a.5.x >   ",
"    &X&X&X&X&X}.<     $ = = 5 W W u t j Z l.Z.x.Z j H 2.^.[.I.' X.v.V.p.5.h >   ",
"    #X&X&X&X&X}.<     $ * * * 4 e e t m q.j.j.j.q.N t a 2.h.R 7.d.B.V.a.8.b 8 X ",
"    {.&X&X&X&X}.0 * * .       * , , e i j J J J j f u u s R 0.c.B.B.B.B.x.l./ 6 ",
"    {.&X&X&X&XoXW.I = .       $ , 5 t h z M V V V V V V C 6.d.B.V.B.B.B.m.C.=./ ",
"    U. X&X&X&X&X&XP.= .       = r K G z ,.w.r.r.t.u.u.u.s.d.B.B.B.B.V.k.0.c.S.k.",
"    O >.$X&X&X&X$X:.* .     . 6 ! j.P n 5.e.t.s.v.v.v.v.B.B.B.B.B.B.V.#.v 8.f.q.",
"      :.&X&X&X&X$X{   $ * * * 6 ~ x.R n e.y.s.v.B.V.V.V.V.B.V.V.B.B.V.i.C N m v ",
"      U /.#X&X&X$XY.S ; = = = - k O.J n e.s.m.V.B.B.B.B.B.B.B.V.B.B.V.a.5.j w > ",
"      $ S {.$X&X&X&X/.7 = = = . * y a n 9.c.V.B.B.V.V.V.V.Z.Z.V.B.B.B.p.5.x 3   ",
"      $ ; D Q.&X&X&X'.1 * * * . . @ w n r.v.V.V.V.J.K.A.J._.L.D.V.B.m.u.B h 3   ",
"            S Q.#X&X.X>.<     $ * * 4 d C l.S.c.O.@.&.O.@.*.*.+.X.p.s.<.z 8 @   ",
"              q `. X.X#X:.%   $ = = = - J j.d.7.f e t e e e e e j ,.5.V t +     ",
"              ; q 0 { oX@XU.O $ = = = - h 0.X.f 4 , , + X X X * 8 h B c t +     ",
"              $ * * 7 { >.Y o $ * * * @ 4 b v e ; * * .       $ = 5 g h t +     ",
"      $ * * * .       $ * * * .       $ = 6 e 5 X     $ * * * .   . > e 5 +     ",
"      $ = = = .       $ = = = .       $ = = ; o       $ = = = .     . . .       ",
"      $ = = = .       $ = = = .       $ = = = .       $ = = = .                 ",
"      $ * * * .       $ * * * .       $ * * * .       $ * * * .                 ",
"                                                                                ",
"                                                                                ",
"                                                                                ",
"                                                                                "
};
