/* XPM */
static char *_1c93acef68f4bc3bc72b6057cfc700f8TH25uemSSgfRYt0[] = {
/* columns rows colors chars-per-pixel */
"40 40 193 2 ",
"   c #201309",
".  c #24180F",
"X  c #241712",
"o  c #261A14",
"O  c #2A1D13",
"+  c #271A19",
"@  c #291C1C",
"#  c #2C2016",
"$  c #2A221C",
"%  c #31251C",
"&  c #2B1D22",
"*  c #2D2621",
"=  c #2E2823",
"-  c #2E232B",
";  c #362C24",
":  c #30252B",
">  c #31292C",
",  c #332532",
"<  c #332A34",
"1  c #35293C",
"2  c #362B3C",
"3  c #353138",
"4  c #41372E",
"5  c #42382F",
"6  c #443931",
"7  c #493F36",
"8  c #433F3A",
"9  c #382E40",
"0  c #363745",
"q  c #393243",
"w  c #3B3C41",
"e  c #3D354D",
"r  c #3D394E",
"t  c #3E3C52",
"y  c #40344E",
"u  c #403C52",
"i  c #37434A",
"p  c #3D4054",
"a  c #3C445B",
"s  c #3D4A5C",
"d  c #3D595B",
"f  c #3E6158",
"g  c #364E65",
"h  c #394A61",
"j  c #375267",
"k  c #3A5365",
"l  c #3D5C65",
"z  c #355A6C",
"x  c #3C5D69",
"c  c #2E5870",
"v  c #335D70",
"b  c #3E6565",
"n  c #3E656A",
"m  c #3D706C",
"M  c #2F687A",
"N  c #396772",
"B  c #3A6E73",
"V  c #306A7A",
"C  c #2F727F",
"Z  c #3A7678",
"A  c #3A7C7D",
"S  c #484B48",
"D  c #544C43",
"F  c #5B534B",
"G  c #454259",
"H  c #474559",
"J  c #424E5B",
"K  c #45535B",
"L  c #4B535C",
"P  c #555B5B",
"I  c #6A645C",
"U  c #4E4D67",
"Y  c #525469",
"T  c #615D6B",
"R  c #436463",
"E  c #416D67",
"W  c #546B66",
"Q  c #427567",
"!  c #427B6C",
"~  c #506173",
"^  c #437875",
"/  c #5D707E",
"(  c #6C6963",
")  c #726D66",
"_  c #6B6878",
"`  c #706B7D",
"'  c #807C75",
"]  c #46826F",
"[  c #438A73",
"{  c #428F7A",
"}  c #518075",
"|  c #449576",
" . c #479679",
".. c #5F9477",
"X. c #668A73",
"o. c #619577",
"O. c #6C987A",
"+. c #709C7B",
"@. c #45AC7F",
"#. c #66A47E",
"$. c #85817B",
"%. c #2A7685",
"&. c #347A81",
"*. c #656D81",
"=. c #677185",
"-. c #6D7782",
";. c #7B7888",
":. c #857F90",
">. c #2A878F",
",. c #2C8C8E",
"<. c #3B8382",
"1. c #3A8A85",
"2. c #3A9485",
"3. c #268691",
"4. c #2B8C91",
"5. c #2D9592",
"6. c #349C92",
"7. c #359E95",
"8. c #3BA48D",
"9. c #3FB68C",
"0. c #32A192",
"q. c #3AA493",
"w. c #3BAE94",
"e. c #35A598",
"r. c #3DB495",
"t. c #3DB79A",
"y. c #418D85",
"u. c #638480",
"i. c #728292",
"p. c #45AA81",
"a. c #45B586",
"s. c #4EB183",
"d. c #47B986",
"f. c #48BB87",
"g. c #40B68D",
"h. c #45BB8B",
"j. c #4ABD88",
"k. c #51B283",
"l. c #40BA93",
"z. c #42B895",
"x. c #6DA780",
"c. c #67BF89",
"v. c #7BB485",
"b. c #47C18B",
"n. c #49C48A",
"m. c #48C78A",
"M. c #4CCC8D",
"N. c #50CD8E",
"B. c #43C392",
"V. c #46CA92",
"C. c #5CD592",
"Z. c #77C68D",
"A. c #7AC98E",
"S. c #6ACB91",
"D. c #68D995",
"F. c #71DE96",
"G. c #7EDD96",
"H. c #79E499",
"J. c #8F8D86",
"K. c #918F89",
"L. c #878593",
"P. c #999791",
"I. c #9C9A95",
"U. c #A4A39E",
"Y. c #8797A3",
"T. c #9BB0B3",
"R. c #A7A8A5",
"E. c #ABABA6",
"W. c #A4B6BD",
"Q. c #B5B6B1",
"!. c #B7BABB",
"~. c #83CA8E",
"^. c #85D494",
"/. c #BDC1BD",
"(. c #82E8A0",
"). c #C1C3BF",
"_. c #B9BBC1",
"`. c #B9C6CA",
"'. c #C6CAC7",
"]. c #C8CBC7",
"[. c #C9CCC9",
"{. c #CBD0CC",
"}. c #CDDCDC",
"|. c #D2D6D2",
" X c #DBE0DC",
".X c #D2DEE0",
"XX c #D9E5E3",
"oX c #E3E9E7",
"OX c #EAF1EE",
"+X c #E5F5F0",
"@X c #EEF5F2",
"#X c #F0F7F4",
"$X c #F7FFFB",
/* pixels */
"                        P.#XOXI                                                 ",
"                  D K.K.].#X@XQ.I .                                             ",
"              . 7 R.#X#X#X#X#X#XQ.O                                             ",
"              6 ).@X#X#X#X@XOX#XE.#                                             ",
"            F !.OX#X#X#X#X|.) ( F = * .       $ * * * .       $ * * * .         ",
"            ' #X#X#XOXQ.E.$.. $ = = = .       $ = = = .       $ = = = .         ",
"          O J.#X#X@X/.4   .   $ = = = .       $ = = = .       $ = = = .         ",
"        % I. X#X#XR.D o       $ * * * .       $ * * * .       $ * * * .         ",
"      $ 8 {.#XoXU.D   $ * * * .       $ * * * .       $ * * * .                 ",
"      $ 8 '.#X|.5     $ = = = .   X X = > = = .       $ = = = .   X X X X       ",
"      $ 8 '.#X|.4     $ = = = . @ q q e q > = .       $ = = = . + q q q q +     ",
"      $ 8 [.[.) %     $ * * * & S O.+...] i > .       $ * * * & S O.+.o.] i &   ",
"        ; [.P.$ * * * .     . 2 W G.(.S. .J 2 - > > > @ + + + 2 P v.^.D.h.l ,   ",
"        ; ).K.$ = = = .       2 R f.z.<.s t t r t u t r r r r t u J y.t.q.k ,   ",
"        O F 7 $ = = = .       = w b l N <.{ |  .x.v.x. .#.#. .| { A N x x a <   ",
"              $ * * * .   . + $ > e s A r.V.m.M.F.H.H.N.D.F.M.m.V.r.Z a e 9 *   ",
"      $ * * * .       $ * 3 H > & t <.r.b.f.h.b.m.j.f.b.m.m.d.j.m.b.6.V r @     ",
"      $ = = = .       $ < T !._ 2 t  .V.f.Q Z r.b.[ n 8.B.@.b | m.b.0.V r +     ",
"      $ = = = .       $ 2 ` oX_.` u E [ ! p s Z ! K s 6.2.} L.u.| f.0.V e +     ",
"      $ * * * .       $ < _ XX$X`.Y t G L L K J L H s 1.^ ;.XXL.d a.0.C s =     ",
"              $ * * * o - ~ `.+X.XY.U W ~.^.c.s.A.X.t a Y.oXOX:.d a.0.4.2.s :   ",
"              $ = = = . + w -.W.W.=.H L X.S.C.m.o.P G *.`.$XXX;.d d.9.r.l.| f > ",
"              $ = = = .   o e *.=.u e t l p.M.a.n t H i.`.}.T./ m d.m.m.m.V.[ r ",
"              $ * * * .   @ e G G t e x 6.h.m.h.q.B u G ;.Y.Y A w.b.m.m.b.r.A e ",
"      $ * * * .       $ * > r Q ! t y a x R R R n s e e H ~ A 8.B.b.l.t.r.Z i & ",
"      $ = = = .       $ = > q Q ! t a h j g g g g j j j k B w.B.m.b.2.<.A i &   ",
"      $ = = = .       $ = = = < r t c %.>.4.,.,.,.,.,.,.6.w.b.m.m.j.E t r @     ",
"      $ * * * .       $ * * * o : t V 3.4.7.w.g.9.9.g.9.g.h.m.m.m.b.2.v e +     ",
"              $ * * * .       $ > t &.0.8.r.B.M.D.C.M.D.F.D.M.m.b.l.5.M t @     ",
"              $ = = = .       $ < t 1.t.h.a.p.s.A.c.k.A.^.Z.s.a.r.e.%.g q +     ",
"              $ = = = .       $ < t  .B.q.n J J L K J L L L J Z 5.4.z 9 o       ",
"              $ * * * .       $ > t 2.8.n 3 & , < < < - & , e h z z 0 @         ",
"      $ * * * .       $ * * * . @ t Z B q : * .       $ * > q q 2 2 @           ",
"      $ = = = .       $ = = = . @ e t 0 > = = .       $ = = = o . .             ",
"      $ = = = .       $ = = = . X @ & = = = = .       $ = = = .                 ",
"      $ * * * .       $ * * * .       $ * * * .       $ * * * .                 ",
"                                                                                ",
"                                                                                ",
"                                                                                ",
"                                                                                "
};
