/* XPM */
static char *d596f8665d0e4c4c9d306554c7ca3afdwJ9DqGBfsLvwRkTa[] = {
/* columns rows colors chars-per-pixel */
"50 50 92 1 ",
"  c #25302F",
". c #25312F",
"X c #29372F",
"o c #2D3D2D",
"O c #272630",
"+ c #262730",
"@ c #292537",
"# c #232B30",
"$ c #252830",
"% c #242930",
"& c #222C30",
"* c #222D30",
"= c #242E32",
"- c #272D35",
"; c #2B2934",
": c #2E2C37",
"> c #2A253A",
", c #29273F",
"< c #222E3A",
"1 c #302D39",
"2 c #322F3B",
"3 c #332F3C",
"4 c #233134",
"5 c #273137",
"6 c #263237",
"7 c #223637",
"8 c #223832",
"9 c #223E33",
"0 c #2B3931",
"q c #2F3E32",
"w c #26363A",
"e c #27363A",
"r c #293539",
"t c #2B373B",
"y c #24393A",
"u c #273B3D",
"i c #243E3D",
"p c #2B393F",
"a c #32303C",
"s c #33452B",
"d c #34462B",
"f c #30402E",
"g c #34462E",
"h c #374A2D",
"j c #384B2D",
"k c #38522E",
"l c #3D512F",
"z c #21453F",
"x c #374836",
"c c #3D5134",
"v c #292740",
"b c #222F40",
"n c #2C3B43",
"m c #2C3C46",
"M c #2C3E4A",
"N c #383043",
"B c #3B3046",
"V c #3F304A",
"C c #38344F",
"Z c #42314E",
"A c #453152",
"S c #433653",
"D c #483555",
"F c #5A396B",
"G c #5E3B6F",
"H c #5F3B70",
"J c #274644",
"K c #234944",
"L c #234A44",
"P c #294548",
"I c #2F4748",
"U c #2D404E",
"Y c #28474E",
"T c #2A4948",
"R c #2E4B4B",
"E c #2E4C4B",
"W c #33494D",
"Q c #3E5843",
"! c #2D4252",
"~ c #3E4357",
"^ c #30495C",
"/ c #3C4859",
"( c #3A4D5A",
") c #316B5F",
"_ c #37586F",
"` c #375870",
"' c #3C7C70",
"] c #4B546E",
"[ c #5E7C7A",
"{ c #62823F",
"} c #6A8C4A",
"| c #7C8284",
/* pixels */
"***********ho****&&&&&&&&&&&&&&&tt!_!tt!tt#&&o&&&&",
"******j******e**og&&&&&&&z*K&&*rtt!!!tt!t=&#&&&&&&",
"***********4**t*** *&&&K&&K&&**#!!__!!!te##&&&#*&&",
"********r**h********&&&#&&*&4#*tt!!_!!!!!&&j*#*#&&",
"********************1z#*#***&&rp!!_!!!!!!t&t**#*&&",
"*j*****j*******&#**1O**J*** erc!!!t!tt!!!er#t**#&&",
"*******j*******&#&&****##*#ttnr!!ttttttttctt**#*&g",
"***r**8******9**#&O*7OK**#ttUte!!t!!tt&&4&#&***#&}",
"***. ******* &&*z &&&& ##rQt!!!!!t!`!r&&&&&&&&&&&&",
"**jl&&**h***&&& *&+&O&&&p!Qt!!Q`!tt!!6&&&&&&&&&&&&",
"#***X&&j&p*e&&&&**&&&&&trtt!tn!!!t!`!t#&&&&&&q*&#*",
"O*** &&&h***&&&&h*&&&&&&etttttttt!!!e!t#&&&&&X &*r",
"*#&g&&#&&&&&&&&&k***&&&r&&&&=*rtt!!t!tttrr&&+&&&h*",
"O*O&fO&O +&O&&O&OLO*++K+aO&&*=**t!!!t!!!!pten0&&*#",
"2O2#&&&#O*&&&#&&*L**&&&&&&&&4*#*rt!!t!!!!!!!pf&&&&",
"2222:+&+*O*O##O&O#O*++&O&O&++%h#=t`!t!_`_!!!!x&+&&",
"22A222O&&&O&&O&&*O#########*%###tt!!tm!__`!`!xr=&&",
"AAAV222O&O&'%&O&O#O*%%#O&O*O4#*#4ettt!!!`!!!!t==&&",
"AAAAN2&&O&&&##2O&&#*##&&&&&*&#&&&e6n!mt!tQ!!tMr&&&",
"AHASA22O&O#O%&O2O&O&%%&O&O1O##&&&&&etttttt!!tte=&&",
"AHHAAA2&O2O&%O#O1O&z#4&&O&&&%ih#&&&&hqee!t!!!Mtte&",
"AAAAVA2O&O&O##O#O*O##O&O&O&O##O#*#&&*#h&c!t!!^!!n6",
"A]AA22O&O&O&#O#O*O#O#&O&&&O&#%&&######&h%!t!!W!!!r",
"AAAVA2&O&O&O##O#O*O*OO&OLO#O##O&e*O*#*&&tt!!!!!!!!",
"AAAAA2OKO2O#%O#@#O#O##O#O&O&#O#J|O#O*&&&*tt!trUt!!",
"AHAA22OO#O2O;OObO#O#%%RY&O&O#iO&e*O#Oy&&j*rrtp.ett",
"AHHAA2O#O2Ot#O#>&O#O##OKO&O&O%&&#O#O&%#&=*##&&&&tn",
"AAHAA21O2O#OO#O#O&OO%O#O&O&O##O2O*O*O#&&*%#j.o&&*r",
"AHAFA2222R22yO&O&O&O##O#OLO#%%#O#O*J%*OL**%r&&&&&&",
"AA1/A2222222OOO&OOO&wO#OOO#vO#OO>*O#O%3O2O**&&&{&&",
"1A2NAAAA2AA2#O&O&O&O)#O&O&O#O##O*OLJ*;OaO*O*++&&&&",
"22A2AAHA2A2OO#OOO&OO%%OO&OOO#OO#O%O*O%*O%J*O&++&O&",
"2E22AAHAAAOL#J2O*O#O##O2O*O%OOLO*O#O2DRR22O*O##O&O",
"O222VHAAA2OOO2OOOOOOOOJOOOOOOOOOJ#OR]B(22A22#OO#JO",
"*2222AAA2A22#O#O2O#O:*O%O*O*O#LO&O*O1;2AHAAA2##J&O",
"O222VAAAAAA22222OOO2;O2JOOOO-OJOOOO&OO21A22O2#OOP<",
"2ORNAHAA2AAA222222A22A2*O*O*Oi#O&O&O&#J&O*O#O##O&O",
"OO2FAAA222AAB2AAA2222AA2O2OOOOOOOOOOOeOOJOOOOOOOOO",
"OO22A(a2O22AAAAA22*O-N222OOOO##O&O&O##O#O#O#O##OLO",
"O22/A1OOOO22BHAA2OOOOOOOOOOOOOOJOOOOOeOOOO#OJOOOO#",
"O2AA~2OOOH22B2A22OHOO%OOO#OOO6OO&OOO&OJ&O*O#O##O*O",
"O22ZV22OOO22B2AA22O2OOOOOOOOOO>OOOOOOeOOOOOOOOOOOO",
"OO2I222OO#O222AHA222a-O*OOOLOO<OOJ#O&#O#O#O*O##O#O",
"OOOOO>,OOOOO222AHAHA22OO2OOOOOOOOOOOOOOOOOOJOOO,@O",
"OOJOOOOOOOOOOO2OR22AVZ2222OOOOOO1OJO#OO#OOO#OO#OOO",
">OOOOOOOOOOOOOOOJRO2222AAA3O%OOOOOOOOOOOOO'OOOOOOO",
"OOOOOOOOOOOOOOOOOOOO222A222O-O#O2OOOO#OOO#OOO#OO#O",
"OOOTOOOOOOCOOOOOJOOOvOOO2OOOOOOOJOOOOOOJOOOOOuOOOO",
"OOOOOOOOOO>2-OOOOOOO@OOOOOOOO6OOOOOOOOOOOOOOOOOOOO",
"OOOOOOOOOOOO[OOOOOOOOOOOOOOOOOOOOOOOOOO>OOOOOOv2OO"
};
