/* XPM */
static char *_4acfe154cff4d91e8bbf35eacdbde8brZ3PbVBSRTlzvmne[] = {
/* columns rows colors chars-per-pixel */
"40 40 171 2 ",
"   c #020202",
".  c #0D0906",
"X  c #0E0C0B",
"o  c #110A05",
"O  c #1A0F07",
"+  c #110E0B",
"@  c #1A0F08",
"#  c #1C1007",
"$  c #15110E",
"%  c #1D1109",
"&  c #151312",
"*  c #1A1512",
"=  c #1C1917",
"-  c #1C1C1B",
";  c #201208",
":  c #241E19",
">  c #25201C",
",  c #322217",
"<  c #322318",
"1  c #3C2A1C",
"2  c #242424",
"3  c #2D2A27",
"4  c #2B2B2A",
"5  c #332820",
"6  c #322F2D",
"7  c #3C3025",
"8  c #31312F",
"9  c #343433",
"0  c #3C3C3A",
"q  c #432F1C",
"w  c #4A361F",
"e  c #4D3821",
"r  c #5E3B26",
"t  c #5E3C2A",
"y  c #403B35",
"u  c #503C34",
"i  c #5E3F33",
"p  c #613E2C",
"a  c #5E402B",
"s  c #42423F",
"d  c #66412C",
"f  c #69442D",
"g  c #604035",
"h  c #6A4631",
"j  c #6C4932",
"k  c #604A3B",
"l  c #6D503D",
"z  c #775333",
"x  c #74553D",
"c  c #464543",
"v  c #4C4B4A",
"b  c #51514D",
"n  c #5C5C5B",
"m  c #6B5243",
"M  c #65544D",
"N  c #6B544B",
"B  c #715747",
"V  c #775D47",
"C  c #70594D",
"Z  c #785E4C",
"A  c #685C55",
"S  c #61615E",
"D  c #7D6756",
"F  c #72645B",
"G  c #646464",
"H  c #6A6A65",
"J  c #6C6D6A",
"K  c #736A65",
"L  c #7B6E67",
"P  c #706F6A",
"I  c #7B6E69",
"U  c #7F7267",
"Y  c #7C726A",
"T  c #727271",
"R  c #7C7C77",
"E  c #7B7B79",
"W  c #855731",
"Q  c #845A34",
"!  c #8D5D31",
"~  c #835A38",
"^  c #8F633D",
"/  c #93693B",
"(  c #9B6E3E",
")  c #82634A",
"_  c #956941",
"`  c #9C6F44",
"'  c #907154",
"]  c #9E7D5D",
"[  c #A57545",
"{  c #AD7B46",
"}  c #A67848",
"|  c #AF7F4C",
" . c #B07E49",
".. c #807669",
"X. c #867A6C",
"o. c #8B7D6D",
"O. c #837C74",
"+. c #8A7F75",
"@. c #B6834D",
"#. c #B8864D",
"$. c #AC8052",
"%. c #BA8750",
"&. c #BC8A52",
"*. c #8B8177",
"=. c #84847F",
"-. c #8E837B",
";. c #9D8B7B",
":. c #A58365",
">. c #A4856C",
",. c #A7886E",
"<. c #AB8C6E",
"1. c #B5926D",
"2. c #BE986F",
"3. c #B59370",
"4. c #C18E55",
"5. c #C4925B",
"6. c #C99761",
"7. c #CC9A63",
"8. c #838380",
"9. c #878885",
"0. c #8B8B85",
"q. c #8C8C8A",
"w. c #938F85",
"e. c #95938C",
"r. c #9A948D",
"t. c #999694",
"y. c #9C9C94",
"u. c #969798",
"i. c #9D9E9C",
"p. c #AA9C8C",
"a. c #A3A49D",
"s. c #B5A392",
"d. c #A5A5A2",
"f. c #A8A4A2",
"g. c #ACA9A7",
"h. c #ABACAA",
"j. c #B3B3AD",
"k. c #B4B4B3",
"l. c #BBBBB5",
"z. c #BDBDBC",
"x. c #CAAA85",
"c. c #CBAC89",
"v. c #C6B4A2",
"b. c #C7B9A8",
"n. c #CDBEAF",
"m. c #CFC1B5",
"M. c #C1C2BC",
"N. c #D3C7BD",
"B. c #D3C8BE",
"V. c #C4C4C2",
"C. c #CCCAC6",
"Z. c #CCCCCC",
"A. c #D0C7C0",
"S. c #D2CAC4",
"D. c #D0CDCB",
"F. c #D3D1CF",
"G. c #CFD0D0",
"H. c #D1D2D3",
"J. c #D6D7D9",
"K. c #DBDBDA",
"L. c #E2D7CB",
"P. c #E5DCD2",
"I. c #DFE0DE",
"U. c #E0E0DF",
"Y. c #E5E5E5",
"T. c #E8E6E5",
"R. c #E9E8E7",
"E. c #E6E7E8",
"W. c #E7E9EB",
"Q. c #E9EAEB",
"!. c #F2F3F5",
/* pixels */
"; ; ; ; ; ; ; ; ; ; ; ; ; ; ; ; ; ; ; ; ; ; ; ; ; ; ; ; ; ; ; ; ; ; ; ; ; ; ; ; ",
"; ; ; ; ; ; ; ; ; ; ; ; ; ; ; ; ; ; ; ; ; ; ; ; ; ; ; ; ; ; ; ; ; ; ; ; ; ; ; ; ",
"; ; ; ; ; ; ; ; ; ; ; ; ; ; ; ; ; ; ; ; ; ; ; ; ; ; ; ; ; ; ; ; ; ; ; ; ; ; ; ; ",
"; ; ; ; % % # % % % % % % % % % % % % % % % % % % % % % % % % % % % % % ; ; ; ; ",
"; ; ; ; # o o $ & & & o o o o $ & & & o o o o $ & & & o o o o $ & & = % ; ; ; ; ",
"; ; ; % % $ & & & & $ + + + + $ $ $ $ $ + + + $ $ $ $ + + + + & & & = % % ; ; ; ",
"; % O % : 9 c c s y 7 1 q w e e e e e e e e e e e e w q 1 7 y s c c 9 > % O % ; ",
"; # o + 6 S =.q.=...V z Q / ( ( ( ( ( ( ( ( ( ( ( ( / Q z V ..=.q.=.S 6 + o # ; ",
"; # o + 9 R h.l.j.p.] ` { %.4.4.4.4.4.4.4.4.4.4.4.4.%.{ ` ] p.j.l.h.R 9 X o # ; ",
"; # o & s q.V.H.C.v.1.| %.5.7.7.7.7.7.7.7.7.7.7.7.7.5.%.| 1.v.C.H.V.q.s + o # ; ",
"O % $ 2 n d.J.E.K.n.3.| #.5.7.7.6.6.6.6.6.6.6.6.7.7.5.#.| 3.n.K.E.J.d.n 2 $ % O ",
". & 3 v 8.z.E.!.T.m.<.` [ @.&.&.&.&.&.&.&.&.&.&.&.&.@.[ ` <.m.T.!.E.z.8.v 3 & . ",
"  & 0 J i.Z.Q.!.R.m.,._ (  .#.#.#.#.#.#.#.#.#.#.#.#. .( _ ,.m.R.!.Q.Z.i.J 0 &   ",
"  = c E h.Z.Y.Q.U.m.3.}  .&.5.5.5.5.5.5.5.5.5.5.5.5.&. .} 3.m.U.Q.Y.Z.h.E c =   ",
"  = b q.j.V.H.J.F.b.1.@.%.5.7.7.7.7.7.7.7.7.7.7.7.7.5.%.@.1.b.F.J.H.V.j.q.b =   ",
"  - n a.z.M.z.z.l.s.:.[  .&.5.5.4.4.4.4.4.4.4.4.5.5.&. .[ :.s.l.z.z.M.z.a.n -   ",
"  2 J k.V.k.a.a.a.;.' ^ ( { #.%.%.%.%.%.%.%.%.%.%.#.{ ( ^ ' ;.a.a.a.k.V.k.J 2   ",
"  2 T k.V.d.q.0.0.X.) Q ! ( $.2.x.c.x.x.x.x.c.x.2.$.( ! Q ) X.0.0.q.d.V.k.T 2   ",
"  2 T k.V.i.=.E E U ) ~ W ^ :.v.L.P.P.P.P.P.P.L.v.:.^ W ~ ) U E E =.i.V.k.T 2   ",
"  2 T z.Z.k.i.u.u.r.;.>.:.>.s.A.Y.W.E.E.E.E.W.Y.A.s.>.:.>.;.r.u.u.i.k.Z.z.T 2   ",
"  2 E Z.E.K.H.Z.Z.D.S.B.N.B.S.D.G.H.H.H.H.H.H.G.D.S.B.N.B.S.D.Z.Z.H.K.E.Z.E 2   ",
"  2 T V.E.E.U.U.U.U.U.I.K.J.H.Z.z.k.g.f.f.g.k.z.Z.H.J.K.I.U.U.U.I.U.E.E.V.T 2   ",
"  - S d.M.V.M.M.M.M.M.z.k.h.k.z.k.r.I A A I r.k.z.k.h.k.z.M.M.M.M.M.V.M.d.S -   ",
"  = v R r.y.y.y.y.y.t.e.=.R q.h.g.-.M u u M -.g.h.q.R =.e.t.y.y.y.y.y.r.R v =   ",
"o * 3 c n T 8.9.8.O.L F N M I t.d.e.Y F F Y e.d.t.I M N F L O.8.9.8.T n c 3 * o ",
"% % @ = 9 n E 8.E K N g t i C +.r.t.e.w.w.e.t.r.+.C i t g N K E 8.E n 9 * @ % % ",
"% # o X 4 n =.q.8.I m p r p l D X.o.o.o.o.o.o.X.D l p r p m I 8.q.=.n 4 . o # ; ",
"; # o + 8 H r.i.r.+.Z j d f j x x x x x x x x x x j f d j Z +.r.i.r.H 8 X o # ; ",
"; # o + 9 P y.a.y.-.Z h d d d d d d d d d d d d d d d d h Z -.y.a.y.P 9 + o # ; ",
"; # o + 9 J t.a.y.*.C t t t t t t t t t t t t t t t t t t C *.y.a.t.J 9 + o # ; ",
"; # o + 8 H e.y.r.O.N p t t t t t t t t t t t t t t t t p N O.r.y.e.H 8 + o # ; ",
"; # o X 4 n 8.q.8.Y B h f f f f f f f f f f f f f f f f h B Y 8.q.8.n 4 X o # ; ",
"; # o X 2 c G J G A k a r t t t t t t t t t a a a t t r a k A G J G c 2 X o # ; ",
"; % o X & 2 9 9 9 6 5 < , , , , , , , , , , , , , , , , < 5 6 9 9 9 2 & X o % ; ",
"; % @ X X X & + + + + + + + + + + + + + + + + + + + + + + + $ + + + X . . @ % ; ",
"; % @ * * & & o o o o $ & & & + o o o $ & & & + o o o $ & & & o o o o o o @ % ; ",
"; ; % % % % % % % % % % % % % % % % % % % % % % % % % % % % % % % % % % % % ; ; ",
"; ; ; ; ; ; ; ; ; ; ; ; ; ; ; ; ; ; ; ; ; ; ; ; ; ; ; ; ; ; ; ; ; ; ; ; ; ; ; ; ",
"; ; ; ; ; ; ; ; ; ; ; ; ; ; ; ; ; ; ; ; ; ; ; ; ; ; ; ; ; ; ; ; ; ; ; ; ; ; ; ; ",
"; ; ; ; ; ; ; ; ; ; ; ; ; ; ; ; ; ; ; ; ; ; ; ; ; ; ; ; ; ; ; ; ; ; ; ; ; ; ; ; "
};
