/* XPM */
static char *result[] = {
/* columns rows colors chars-per-pixel */
"50 50 168 2 ",
"   c #3D081B",
".  c #44091E",
"X  c #4C0B22",
"o  c #540C25",
"O  c #590C27",
"+  c #520E29",
"@  c #5C0D29",
"#  c #55102C",
"$  c #5D112E",
"%  c #5C1231",
"&  c #640E2C",
"*  c #6B0E2F",
"=  c #62102F",
"-  c #6C0F31",
";  c #740F32",
":  c #7D0F35",
">  c #651335",
",  c #6C1133",
"<  c #6A173A",
"1  c #6C1539",
"2  c #731034",
"3  c #7A1136",
"4  c #74153B",
"5  c #7C133A",
"6  c #72193E",
"7  c #6B522E",
"8  c #7D1740",
"9  c #731A41",
"0  c #7C1A43",
"q  c #801137",
"w  c #84133B",
"e  c #8B133D",
"r  c #93113E",
"t  c #892238",
"y  c #9B203E",
"u  c #A43B3C",
"i  c #A0483B",
"p  c #AE5A36",
"a  c #9F7B2D",
"s  c #BC612D",
"d  c #B96130",
"f  c #B96B35",
"g  c #C6622E",
"h  c #C96331",
"j  c #C87F33",
"k  c #841641",
"l  c #8C1541",
"z  c #821943",
"x  c #8C1947",
"c  c #8D1C4B",
"v  c #941542",
"b  c #9B1443",
"n  c #9A1A44",
"m  c #9D1749",
"M  c #94194A",
"N  c #9D194B",
"B  c #9B1E51",
"V  c #A31445",
"C  c #A91447",
"Z  c #AA1C46",
"A  c #A41749",
"S  c #AC154A",
"D  c #A3194D",
"F  c #AB194E",
"G  c #B3154C",
"H  c #BA164F",
"J  c #B2194F",
"K  c #A61B51",
"L  c #AC1B52",
"P  c #BE1650",
"I  c #B41B53",
"U  c #BB1A54",
"Y  c #B41E58",
"T  c #BC1D59",
"R  c #9D2440",
"E  c #AC3747",
"W  c #B43146",
"Q  c #AD215A",
"!  c #B4205B",
"~  c #BB215D",
"^  c #BD2361",
"/  c #C21752",
"(  c #C81754",
")  c #C31A55",
"_  c #CB1956",
"`  c #C31D5A",
"'  c #CC1C5B",
"]  c #D01857",
"[  c #D31B5C",
"{  c #DB1A5D",
"}  c #E11B5F",
"|  c #C2274F",
" . c #C82552",
".. c #C5205E",
"X. c #CB215F",
"o. c #D72C57",
"O. c #C73557",
"+. c #D13659",
"@. c #C51F61",
"#. c #CC1F62",
"$. c #D41F61",
"%. c #DC1D61",
"&. c #E41D63",
"*. c #EB1D65",
"=. c #EF1F69",
"-. c #F21D66",
";. c #F41E6A",
":. c #FA1E6C",
">. c #EF1F72",
",. c #F21F71",
"<. c #C72161",
"1. c #CD2263",
"2. c #CD2768",
"3. c #D42266",
"4. c #DB2164",
"5. c #D62A64",
"6. c #D42669",
"7. c #DA2469",
"8. c #DB286F",
"9. c #D42474",
"0. c #DC2374",
"q. c #D5237D",
"w. c #DC227A",
"e. c #E42065",
"r. c #E92167",
"t. c #E4226A",
"y. c #EC226B",
"u. c #F4226D",
"i. c #F9206D",
"p. c #E42275",
"a. c #EB2173",
"s. c #E32971",
"d. c #EC2973",
"f. c #E22278",
"g. c #F22271",
"h. c #F82171",
"j. c #F32A75",
"k. c #F42B78",
"l. c #BD4450",
"z. c #C85243",
"x. c #A7812D",
"c. c #B58D2C",
"v. c #F79617",
"b. c #F49418",
"n. c #F79B1A",
"m. c #F8A61F",
"M. c #C5992C",
"N. c #CE8432",
"B. c #D18533",
"V. c #D79330",
"C. c #DA9730",
"Z. c #E4A42E",
"A. c #E8AB2E",
"S. c #F6AE23",
"D. c #E8B52B",
"F. c #F8B626",
"G. c #F5BF2B",
"H. c #F9BE29",
"J. c #F4AF36",
"K. c #F7C02B",
"L. c #F9C22B",
"P. c #F9C839",
"I. c #D7B06E",
"U. c #DAB571",
"Y. c #F9D758",
"T. c #F9DC64",
"R. c #CC2481",
"E. c #F9F08E",
/* pixels */
"2.2.2.6.6.6.6.6.2.2.#.<.1.' <.X.<.3.3.<.<...! ! Q L Q ! ~ ! Q x 9 9 9 9 0 0 c B Q ^ 9.9.s.d.j.j.j.k.",
"2.6.6.6.6.6.7.6.3.$.#.<.1.1.` ..X.' X.X.` ! I L K L I ! ! L M z 9 9 > 9 9 0 c B Q ^ 2.7.s.d.d.j.j.j.",
"2.2.3.6.7.3.7.3.6.$.$.#.$.` ` ` ` ` ` ) U I D D N N D D D M z 6 > > > > 9 8 x B Y ^ 1.8.s.y.d.g.j.j.",
"2.3.3.5.7.7.7.7.6.%.$.#.1.` T Y I U I I F A N x k k k x k 4 , > % % % > 1 8 x K I ` 3.t.t.d.u.j.u.u.",
"1.3.6.6.7.7.7.3.%.9.#.#.#.T Y L L F A m m v l w 5 4 2 2 1 = $ # # # $ > 9 8 M K T <.7.e.t.y.g.u.u.d.",
"2.2.1.3.3.3.3.3.$.$.#.#.@.T L K N m v l e 5 5 2 , , , * = # + + + + $ > 3 l m I ` 1.4.r.y.u.y.u.y.y.",
"1.1.3.3.3.7.7.3.$.9.#.@.@.Y K m m v w 3 ; - & @ $ $ $ $ + + + o + # = 2 k v L P ' 3.&.r.r.y.y.y.y.y.",
"2.1.1.3.3.3.3.3.$.9.#.@.@.L D m e w ; - @ o X X X X o O + o o + @ $ - 5 v A H ] %.&.r.r.r.r.r.r.t.r.",
"1.1.6.3.6.$.7.3.$.#.#.#.T L m v w ; * O X . . . . . o o o o O & & ; : l A H #.%.&.&.*.>.&.>.&.>.e.t.",
"3.3.3.3.3.$.%.9.$.3.#.#.T F b k : * O o .   . . . o o O & & * * : w v C H #.%.&.=.=.=.&.&.&.&.&.e.e.",
"3.7.7.3.3.7.3.3.$.$.#.@.I A v w ; & O . . . . . X o & * * : q q v b S P ] %.*.-.;.=.*.&.%.%.%.%.e.4.",
"<.<.1.1.3.3.$.3.#.$.#.` J m l : * & O o . . . X & * : q e r r C S H ( { &.*.;.:.,.=.&.p.%.%.%.%.%.e.",
"L Y ! ! ` T ..` ` ` ` U A b k ; & @ o o X o O & ; w b V C G / / ] ] } &.;.:.:.:.:.=.&.%.%.] $.%.{ &.",
"K K K K L L L I I I I D b k 3 - & O O o O O * : e V H / ] ] { } &.&.-.;.:.:.,.,.:.;.&.%.#.#.] ] { %.",
"K B D K K K K F F D D b l 5 - = O O o o O * : e C / { *.-.-.:.:.,.:.:.:.:.:.:.:.:.*.%.$._ ( ( ] [ } ",
"K K K D K D D D D m b v 5 ; & @ o X o O & * : r Z | *.:.;.a.>.=.>.>.>.,.,.,.:.:.:.&.{ ( / / / ( [ { ",
"K K K K D D D D m M v w 3 * = O o . O @ * ; e y B.B.o.u.y.>.p.p.>.w.>.>.,.:.:.-.-.} ] / H H P ( ] [ ",
"L L L L F D D m m v l 5 , & O o o o O & ; q y N.L.L.B.5.a.f.f.f.w.>.>.,.:.;.-.*.{ ] / G G C H / ] %.",
"Y Y I I L L D m v l w 3 , & O o o O & * 3 r E U.P.L.C.+.>.w.w.w.w.>.,.:.:.*.} { ( / G C V C G / ] %.",
"` ` T T I L D m v e w 2 & @ O o O & * q r y I.E.P.L.L.f w.w.w.w.>.>.,.:.-.} { ( / S V b V C C / ] { ",
"` ` ` T U L F m v l 3 , * $ @ @ & * q r C i E.T.L.L.L.A.E w.w.w.>.>.:.;.} { ] / G V r r V V G ( [ } ",
"@.` ` T I L D b l w 2 2 * & & * ; q r C u v.E.Y.L.L.L.L.n.E p.p.=.:.;.*.} ] / G C r r r r C H ( { *.",
"` ` T T I F m m l 5 3 2 * - , t p f f f s m.Y.L.L.L.L.L.v.d f f f z.} } ] ( H C V r r r V C / ] } -.",
"T T I I L L V b l e 3 2 2 3 3 e V.H.L.L.F.G.x.K.L.L.L.x.S.F.L.L.H.C.] ] ( H C V r r r V C G ( { -.:.",
"T Y I I I F D b v e 5 q w w l R C.L.L.L.L.K.7 L.L.L.L.7 K.L.L.L.H.V. .( / G C V b r r V C P ] } -.:.",
"T T T T Y I L S b v e e v b V G W Z.L.L.L.J.7 D.G.G.D.7 J.L.L.L.b.u ( H G C C V r r V C P ] } -.:.,.",
"' #.#.' ` ` P I F m m V V F P _ &.O.C.H.L.B.x.c.a a c.x.B.L.L.C.Z / H C C C V r V V C H / ] *.-.:.>.",
"%.t.&.t.&.%.$._ P J F G P / ] %.-.:.+.C.L.P.L.L.M.M.L.L.Y.L.V.W H G C V V r r V V V G / ] } -.:.,.>.",
"9.9.9.0.>.&.y.&.[ _ ` ' ' %.*.;.:.,.7.j L.L.L.L.L.L.L.L.F.L.j G C C V V r V r V V C / ( { *.:.:.>.w.",
"9.9.9.9.9.w.a.a.u.&.&.*.-.;.;.,.,.>.7.j L.L.F.F.F.F.F.F.H.H.N.V r V r V V r V V C G ( ] &.-.:.;.>.w.",
"9.9.9.0.0.p.a.y.u.*.;.:.,.>.f.f.R.R.z.C.L.L.m.v.v.v.b.m.L.L.Z.u r r r r r V V C G / ] } -.:.>.>.w.w.",
"0.0.0.t.p.a.a.;.;.;.u.;.a.>.f.f.R.R.p G.L.L.n.v.v.v.b.m.L.L.L.p r r r r r V C C H ( { -.-.,.>.>.>.w.",
"0.8.p.t.p.y.u.:.;.;.u.:.u.u.p.w.q.R.p K.G.v.v.h l.u g b.v.L.L.p r r r V V V C G / ] } -.:.;.a.>.w.w.",
"0.0.p.p.a.g.;.u.u.*.-.u.:.;.a.p.w.q.p m.v.v.h 5.*.*. .g v.v.m.p G C S S S G H / _ { -.:.:.;.>.p.>.w.",
"0.0.0.p.s.y.u.u.;.u.-.;.:.:.u.a.p.w.O.s s s 5.a.:.-.{  .s s g W / / / / / / ( _ { } :.:.>.>.p.p.f.f.",
"0.0.p.t.a.a.u.i.u.-.r.-.;.;.:.u.a.a.p.p.p.t.,.:.:.-.} { ] _ _ ] ] _ _ _ ] ] ] { } :.i.u.w.>.f.f.>.f.",
"y.y.y.y.u.u.i.i.i.r.-.*.*.*.-.i.i.i.i.i.i.:.i.u.*.*.} { } { } } ] { ] [ ] { { } =.:.g.p.w.w.w.w.p.a.",
"' X.X.[ [ { { e.&.e.&.4.%.&.} &.} *.*.} } } } { { [ { { } *.} } } } { { [ { { } -.:.>.f.R.w.w.f.f.g.",
"I J I I I J J U U / / / ) ) _ ) _ _ _ _ _ _ _ ) ( / _ { &.-.;.-.-.-.} } { { { } *.:.g.f.f.R.R.p.a.,.",
"F F A A N m m b b n n m m V V F Z S S S G G G G G H / _ } ;.:.:.:.-.-.} } ] { { &.:.h.a.f.R.w.f.,.,.",
"L Z A m n v x e e w w 5 w w e e e r n n b V A V S S J / [ *.:.g.>.,.;.*.%.[ [ [ { *.i.a.f.f.f.d.:.=.",
"J F D D n n e e w 5 5 5 3 2 3 3 q q w e r r b b V S J / ] *.i.y.f.>.;.=.} [ _ ' [ &.=.h.a.f.f.h.;.%.",
"I I J A N m r e e w 5 5 3 4 3 3 5 q w e e r n b V F J / ] &.-.i.f.w.>.;.{ _ P U U ' &.;.h.g.h.h.*.] ",
"..) U I F A D n n l e w w w q w w w w e e r v b V C J ) ] } -.i.a.w.>.:.$.P G L I U ' &.;.i.u.=.$.` ",
"X.X._  .` ) U I J F A D V n v v r r v r r n b V A J H ) { } -.:.g.p.a.u.` F m b m L U $.&.&.&.$.' U ",
"[ [ 3.[ [  .X.' ' ' `  .| U I J F Z V N A A A S G H ) [ o.*.r.i.:.g.u.%.L v k k l m L T #.$.$.' ` U ",
"4.4.$.[ %.[ $.[ [ [ [ [ ' ' ) ) U J J G F F J J H )  .{ e.*.u.u.i.i.=.T M 5 3 4 8 v m I T ` ` T U U ",
"%.4.4.4.4.%.$.$.4.4.$.$.[ ' ) ) U I J J G G J J U ` [ %.*.u.u.i.u.y.$.K 8 1 1 1 8 k m L I I T T Y T ",
"3.3.%.4.4.4.e.4.4.} 4.{ [ [ _ | U J J J J J J U ) _ [ e.u.u.u.i.y.t...M 4 > > 1 4 x M K K L Y I T T ",
"<.3.3.3.4.$.4.%.e.4.$.$.[ X.) ~ U J J G J J J U ) X.$.e.u.u.u.y.t.3.L x 1 < > 1 8 k M N K L I Y T ` "
};
