/* XPM */
static char *_fa8b6723e10467dcc25cfb5e1c260ecFE2AKrsO5MSpnVAP[] = {
/* columns rows colors chars-per-pixel */
"50 50 6 1 ",
"  c None",
". c #3F8581",
"X c #5CBB8E",
"o c #93E5BF",
"O c #8EFCC3",
"+ c #BBF8DB",
/* pixels */
"                                                  ",
"                                                  ",
"                                                  ",
" XXXXXXXXXXXXXXXXXXXXXXXXXXXXXXXXXXXXXXXXXXXXXXXXO",
" XXXXXXXXXXXXXXXXXXXXXXXXXXXXXXXXXXXXXXXXXXXXXXXXO",
" XXXXXXXXXXXXXXXXXXXXXXXXXXXXXXXXXXXXXXXXXXXXXXXXO",
" XXXXXXXXXXXXXXXXXXXXXXXXXXXXXXXXXXXXXXXXXXXXXXXXX",
" XXXXXXXXXXXXXXXXXXXXXXXXXXXXXXXXXXXXXXXXXXXXXXXXX",
" XXXXXXXXXXXXXXXXXXXXXXXXXXXXXXXXXXXXXXXXXXXXXXXXX",
" XXXXXXXXXXXXXXXXXXXXXXXXXXXXXXXXXXXXXXXXXXXXXXXXX",
" XXXXXXXXXXXXXXXXXXXXXXXXXXXXXXXXXXXXXXXXXXXXXXXXX",
" XXXXXXXXXXXXXXXXXXXXXXXXXXXXXXXXXXXXXXXXXXXXXXXXX",
" XXXXXXXXXXXXXXXXXXXXXXXXXXXXXXXXXXXXoooXXXXXXXXXX",
" XXXXXXXXXXXXXXXXXXXXXXXXXXXXXXXXXXXXoooXXXXXXXXXX",
" XXXXXXXXXXXXXXXXXXXXXXXXXXXXXXXXXXXXoooXXXXXXXXXX",
" XXXXXXXXXXXXXXXXXX+++XXXXXXXXXXXXXXXXXXXXXXXXXXXX",
" XXXXXXXXXXXXXXXXXX+++XXXXXXXXXXXXXXXXXXXXXXXXXXXX",
" XXXXXXXXXXXXXXXXXX+++XXXXXXXXXXXXXXXXXXXXXXXXXXXX",
" XXXXXXXXX+++XXXXXX+++XXXXXX+++XXXoooXXXXXXXXXXXXX",
" XXXXXXXXX+++XXXXXX+++XXXXXX+++XXXoooXXXXXXXXXXXXX",
" XXXXXXXXX+++XXXXXX+++XXXXXX+++XXXoooXXXXXXXXXXXXX",
" XXXXXXXXXXXX+++XXX+++XXXOOOXXX...XXXXXXXXXXXXXXXX",
" XXXXXXXXXXXX+++XXX+++XXXOOOXXX...XXXXXXXXXXXXXXXX",
" XXXXXXXXXXXX+++XXX+++XXXOOOXXX...XXXXXXXXXXXXXXXX",
" XXXXXXXXXXXXOOO...OOO...OOO...XXXXXXXXXXXXXXXXXXX",
" XXXXXXXXXXXXOOO...OOO...OOO...XXXXXXXXXXXXXXXXXXX",
" XXXXXXXXXXXXOOO...OOO...OOO...XXXXXXXXXXXXXXXXXXX",
" XXXXXXXXXXXX...XXX...XXX...XXXXXXXXXXXXXXXXXXXXXX",
" XXXXXXXXXXXX...XXX...XXX...XXXXXXXXXXXXXXXXXXXXXX",
" XXXXXXXXXXXX...XXX...XXX...XXXXXXXXXXXXXXXXXXXXXX",
" XXXXXXXXXXXXXXXXXXXXXXXXXXXXXXXXXXXXXXXXXXXXXXXXX",
" XXXXXXXXXXXXXXXXXXXXXXXXXXXXXXXXXXXXXXXXXXXXXXXXX",
" XXXXXXXXXXXXXXXXXXXXXXXXXXXXXXXXXXXXXXXXXXXXXXXXX",
" XXXXXXXXXXXXXXXXXXXXXXXXXXXXXXXXXXXXXXXXXXXXXXXXX",
" XXXXXXXXXXXXXXXXXXXXXXXXXXXXXXXXXXXXXXXXXXXXXXXXX",
" XXXXXXXXXXXXXXXXXXXXXXXXXXXXXXXXXXXXXXXXXXXXXXXXX",
" XXXXXXXXXXXXXXXXXXXXXXXXXXXXXXXXXXXXXXXXXXXXXXXXX",
" XXXXXXXXXXXXXXXXXXXXXXXXXXXXXXXXXXXXXXXXXXXXXXXXX",
" XXXXXXXXXXXXXXXXXXXXXXXXXXXXXXXXXXXXXXXXXXXXXXXXX",
" XXXXXXXXXXXXXXXXXXXXXXXXXXXXXXXXXXXXXXXXXXXXXXXXX",
" XXXXXXXXXXXXXXXXXXXXXXXXXXXXXXXXXXXXXXXXXXXXXXXXX",
" XXXXXXXXXXXXXXXXXXXXXXXXXXXXXXXXXXXXXXXXXXXXXXXXX",
" XXXXXXXXXXXXXXXXXXXXXXXXXXXXXXXXXXXXXXXXXXXXXXXXX",
" XXXXXXXXXXXXXXXXXXXXXXXXXXXXXXXXXXXXXXXXXXXXXXXXX",
" XXXXXXXXXXXXXXXXXXXXXXXXXXXXXXXXXXXXXXXXXXXXXXXXX",
" XXXXXXXXXXXXXXXXXXoooXXXXXXXXXXXXXXXXXXXXXXXXXXXX",
" XXXXXXXXXXXXXXXXXXoooXXXXXXXXXXXXXXXXXXXXXXXXXXXX",
" XXXXXXXXXXXXXXXXXXoooXXXXXXXXXXXXXXXXXXXXXXXXXXXX",
" XXXXXXXXXXXXXXXXXXXXXXXXXXXXXXXXXXXXXXXXXX+++XXXX",
" XXXXXXXXXXXXXXXXXXXXXXXXXXXXXXXXXXXXXXXXXX+++XXXX"
};
