/* XPM */
static char *fecde0b1ad384ab6e73cca5c1d2b97f8yiBIYHRNooIZoiVe[] = {
/* columns rows colors chars-per-pixel */
"40 40 185 2 ",
"   c #030201",
".  c #0F0000",
"X  c #170502",
"o  c #1F1308",
"O  c #201208",
"+  c #2B150B",
"@  c #25180E",
"#  c #2C1A0F",
"$  c #32170C",
"%  c #3D140A",
"&  c #351A0C",
"*  c #3B1A0D",
"=  c #241810",
"-  c #2B231C",
";  c #392511",
":  c #3D2915",
">  c #352418",
",  c #3C251D",
"<  c #1C232E",
"1  c #2D2621",
"2  c #2E2823",
"3  c #332721",
"4  c #3B2621",
"5  c #322A23",
"6  c #35262C",
"7  c #282B31",
"8  c #4A0F07",
"9  c #5D0F08",
"0  c #41120A",
"q  c #461B0D",
"w  c #4A180D",
"e  c #511E0F",
"r  c #5D1F0E",
"t  c #501D15",
"y  c #531D18",
"u  c #650D07",
"i  c #630F09",
"p  c #7B0D08",
"a  c #64120B",
"s  c #691E0F",
"d  c #681B17",
"f  c #6A1C19",
"g  c #791B18",
"h  c #5D200F",
"j  c #43251C",
"k  c #49281B",
"l  c #542313",
"z  c #5C2211",
"x  c #54211D",
"c  c #5D201C",
"v  c #4D351B",
"b  c #6A200F",
"n  c #622310",
"m  c #672813",
"M  c #6A2A14",
"N  c #74361A",
"B  c #7C3C1C",
"V  c #543926",
"C  c #56422B",
"Z  c #6F4B23",
"A  c #6D502D",
"S  c #173455",
"D  c #1A3657",
"F  c #1B395C",
"G  c #20344B",
"H  c #353141",
"J  c #2A3754",
"K  c #303753",
"L  c #153B67",
"P  c #1A3D79",
"I  c #2B3C70",
"U  c #50325D",
"Y  c #642D53",
"T  c #0E437F",
"R  c #1E4077",
"E  c #11447E",
"W  c #19497D",
"Q  c #315F6F",
"!  c #264776",
"~  c #2C5476",
"^  c #36626D",
"/  c #587D5E",
"(  c #626D5A",
")  c #474A65",
"_  c #495C70",
"`  c #4F6C67",
"'  c #547A60",
"]  c #851009",
"[  c #831917",
"{  c #8E191F",
"}  c #B60807",
"|  c #A61312",
" . c #B52F1B",
".. c #9A1D38",
"X. c #BB1527",
"o. c #B5172A",
"O. c #B91628",
"+. c #8C223F",
"@. c #9E2F37",
"#. c #CC0304",
"$. c #D40707",
"%. c #DF0907",
"&. c #D70A0A",
"*. c #DB0B0B",
"=. c #CD0F1E",
"-. c #DB0B16",
";. c #CA111F",
":. c #EE0506",
">. c #E60609",
",. c #F20406",
"<. c #FE0304",
"1. c #FE0807",
"2. c #F5050A",
"3. c #EB180E",
"4. c #FD140D",
"5. c #DD3219",
"6. c #FB2313",
"7. c #F8371B",
"8. c #F8381C",
"9. c #C51422",
"0. c #D43B2B",
"q. c #EE3A20",
"w. c #83421F",
"e. c #8B4A22",
"r. c #875F2B",
"t. c #8E5B2A",
"y. c #945327",
"u. c #9C5929",
"i. c #AB5C2B",
"p. c #8C6637",
"a. c #946B38",
"s. c #A9652E",
"d. c #A16F33",
"f. c #AE6E32",
"g. c #A47033",
"h. c #A97535",
"j. c #A7763B",
"k. c #A9763B",
"l. c #AC793C",
"z. c #B67234",
"x. c #B47C39",
"c. c #CC5E2E",
"v. c #F35C2C",
"b. c #C77D39",
"n. c #EF7637",
"m. c #E17A3E",
"M. c #F07637",
"N. c #8A2441",
"B. c #8E4540",
"V. c #967E5E",
"C. c #897862",
"Z. c #CF7F47",
"A. c #5B805D",
"S. c #79964F",
"D. c #B7823F",
"F. c #B8803A",
"G. c #A4BB3C",
"H. c #C4823C",
"J. c #C9843C",
"K. c #CD883E",
"L. c #ABC039",
"P. c #EDF51C",
"I. c #FBFF16",
"U. c #829F4B",
"Y. c #9C805D",
"T. c #BD8541",
"R. c #AC8859",
"E. c #B48A56",
"W. c #CF8F41",
"Q. c #D78E41",
"!. c #CF9043",
"~. c #D79646",
"^. c #DC9644",
"/. c #DF9B48",
"(. c #C99452",
"). c #E19C47",
"_. c #EC9A46",
"`. c #E49E48",
"'. c #EA9E48",
"]. c #E5A149",
"[. c #EAA24A",
"{. c #EAA34B",
"}. c #EAA44B",
"|. c #ECA54B",
" X c #0D4480",
/* pixels */
"O O O O O O O O O O O O O O O O O O O O O O O O O O O O O O O O O O O O O O O O ",
"O O O O O O O O O O O O O O O O O O O O O O O O O O O O O O O O O O O O O O O O ",
"O O O O O O O O O O O O O O O O O O O O O O O O O O O O O O O O O O O O O O O O ",
"O O O O O O O O O O O O O O O O O O O O O O O O O O O O O O O O O O O O O O O O ",
"O O O O O O O - 1 1 1 0 8 8 8 t x x x w 8 8 8 t , 1 1 @ O O O - 1 1 1 @ O O O O ",
"O O O O O O O - 2 2 3 } ,.:.:.:.:.:.:.:.:.:.:.:.[ 2 2 @ O O O - 2 2 2 @ O O O O ",
"O O O O O O O - 4 x c $.<.<.<.<.<.<.<.<.<.<.<.<.| x x w 8 8 8 y 4 2 2 @ O O O O ",
"O O O O O O O - [ ,.,.<.<.<.<.<.<.<.<.<.<.<.<.<.2.:.,.,.,.,.,.,.g 1 1 @ O O O O ",
"O O O - 1 1 1 @ p %.%.%.%.%.%.%.3.6.6.6.6.3.#.#.3.6.6.*.&.&.&.$.u O O O O O O O ",
"O O O - 2 2 2 @ % s s b b b s s i._._._._.f.X . t._.Q.V 4 4 4 $ O O O O O O O O ",
"O O O - 2 5 , # l B B m n m B B z.}.{.{.|.h.    r.|.^.A C C C v & O O O O O O O ",
"O O O - 1 > z h y.).^.w.r B ^.`.`.{.{.{.|.h.    r.|.{.`././././.Z O O O o O O O ",
"O O O O O + h h u.{.`.w.r N b.J.^.{.{.{.|.F.: ; t.K.K.`.{.{.{.{.p.C V # O O O O ",
"O O O O O + h h u.|.`.w.r n m m s.{.{.{.{.].).).u.m N Q.|.}.}.}.].`.!.: O O O O ",
"O O O O O + h h e.J.H.y.w.w.w.w.z.{.{.{.{.).J.J.e.h M z.J.J.J.J.H.T.l.; O O O O ",
"O O O O O + z n n m M b.`.`.`.`.`.{.{.{.}.H.m m n h h m m m m m k 5 5 @ O O O O ",
"O O O - 1 > l l e e l H.}.{.{.{.{.{.{.{.{.K.e.w.w.w.w.w.w.N l t $ O O O O O O O ",
"O O O - 2 2 5 @ O o @ D.}.}.|.{.}.}.}.}.}.].].].`.`.`.`.`.l.5 @ O O O O O O O O ",
"O O O - 2 2 2 @ % 9 a c.M.m.E.R.Z.M.n.n.n.n.n.n.b.x.x.D.T.p.5 @ O O o O O O O O ",
"O O O - 1 1 1 @ p <.<.1.1.9.! E N.1.1.1.1.1.1.1.] O @ - 5 2 1 @ O O O O O O O O ",
"O O O O O + 9 d | <.<.<.<.;.R  XN.<.<.<.<.>.X.O.{ f f a i i i d j 1 1 @ O O O O ",
"O O O O O 0 >.2.<.<.<.<.<.;.R  X+.<.<.<.<.9.R E ..<.2.<.<.<.<.2.g 2 2 @ O O O O ",
"O O O 8 u p ,.<.<.<.<.<.<.;.R T Y O.O.O.O.N.E T ..<.<.<.<.<.<.<.| f f + O O O O ",
"O O O } <.<.<.<.<.<.<.<.<.=.P  XE E E E E E  X X..<.<.<.<.<.<.<.<.<.>.% O O O O ",
"O O O  .7.7.7.7.6.<.1.9.o.@./ A.^ T E E T ~ / A.B.o.O.2.<.4.7.7.7.7.5.% O O O O ",
"O O O k.{.{.{.{.v.<.2.U T ` P.I.U.T E E  X` P.I.S.T I -.<.7.'.{.{.{.W.; O O O O ",
"O O O l.{.{.{.}.n.8.q.)  XQ G.L.A.T E E T ^ G.G.'  X! 0.7.v.{.{.{.{.W.; O O O O ",
"O O O l.{.{.{.{.{.{.`._ T E E E E E E E E E E E E T ! (.{.{.{.{.{.{.!.; O O O O ",
"O O O h.{.{.{.{.(.Y.V.~ T E E E E E E E E E E E E T W C.Y.E.{.{.{.{.!.: O O O O ",
"O O O h.{.{.{.{.C.E E E E E E E E E E E E E E E E E E E T ` ].{.{.{.~.: O O O O ",
"O O O Z g.d.d.k.( T E E E E E E L F F S S L E E E E E E T ) d.j.j.k.a.> O O O O ",
"O O O O O O O - G  X X X XT E E D 1 1 = O < E E T  X X X XD @ - 1 1 1 @ O O O O ",
"O O O - 1 3 , * 6 K K K K J F S < O O - 1 7 F S J K K K K H j * + O O O O O O O ",
"O O O - 2 3 z n n n n n n l 5 @ O O O - 2 2 2 @ q n n n n n n n & O O O O O O O ",
"O O O , j k z n n n n n n l 5 @ O O O - 2 2 2 @ q n n n n n n n q & & O O O O O ",
"O O O l n n n n n n n n n l 3 @ O O O - 1 1 1 @ q n n n n n n n n n h + O O O O ",
"O O O * q q q q q q q q q * O O O O O O O O O O & q q q q q q q q q q O O O O O ",
"O O O O O O O O O O O O O O O O O O O O O O O O O O O O O O O O O O O O O O O O ",
"O O O O O O O O O O O O O O O O O O O O O O O O O O O O O O O O O O O O O O O O ",
"O O O O O O O O O O O O O O O O O O O O O O O O O O O O O O O O O O O O O O O O "
};
