/* XPM */
static char *_a37113c598340e48b2666d7111df91aQQEaZOol2GD0y4YC[] = {
/* columns rows colors chars-per-pixel */
"40 40 182 2 ",
"   c #201309",
".  c #24180F",
"X  c #251612",
"o  c #251914",
"O  c #281917",
"+  c #271A19",
"@  c #291B1B",
"#  c #2B231C",
"$  c #2C1E25",
"%  c #2C1F28",
"&  c #2D2621",
"*  c #2E2823",
"=  c #2F242A",
"-  c #2F282A",
";  c #32242E",
":  c #302828",
">  c #332532",
",  c #332B31",
"<  c #362C3B",
"1  c #392D3F",
"2  c #353235",
"3  c #36333B",
"4  c #3B2E45",
"5  c #323644",
"6  c #3A3246",
"7  c #373D46",
"8  c #3D344B",
"9  c #3D394D",
"0  c #3E3650",
"q  c #3D3B52",
"w  c #3A3F59",
"e  c #40374F",
"r  c #423C54",
"t  c #39474C",
"y  c #3F4457",
"u  c #3D4559",
"i  c #3B4B5D",
"p  c #395851",
"a  c #3E535A",
"s  c #3E5A5B",
"d  c #344D65",
"f  c #3A4C61",
"g  c #304D68",
"h  c #3C5463",
"j  c #385765",
"k  c #365569",
"l  c #3B5D6A",
"z  c #3E6F65",
"x  c #3C636C",
"c  c #2D6E7E",
"v  c #336271",
"b  c #3A6D73",
"n  c #306D7B",
"m  c #3D7677",
"M  c #30707C",
"N  c #3B7379",
"B  c #3A7B7D",
"V  c #474556",
"C  c #404C57",
"Z  c #494F56",
"A  c #47445A",
"S  c #49465E",
"D  c #424A58",
"F  c #40535D",
"G  c #4D5759",
"H  c #4B545D",
"J  c #425A5F",
"K  c #4F4A62",
"L  c #405E62",
"P  c #595869",
"I  c #5D5E72",
"U  c #466B66",
"Y  c #556764",
"T  c #586D67",
"R  c #437C6D",
"E  c #4B786C",
"W  c #587C6D",
"Q  c #596879",
"!  c #477C71",
"~  c #616679",
"^  c #6D6A7B",
"/  c #3E8879",
"(  c #43826E",
")  c #448570",
"_  c #4A8471",
"`  c #4C8976",
"'  c #418878",
"]  c #5A8676",
"[  c #5C8B74",
"{  c #459175",
"}  c #43967B",
"|  c #499678",
" . c #459D7C",
".. c #5C977C",
"X. c #648571",
"o. c #668B74",
"O. c #698B73",
"+. c #679678",
"@. c #6D997A",
"#. c #46A17C",
"$. c #6EA87F",
"%. c #276E81",
"&. c #2C7A85",
"*. c #327B82",
"=. c #387F80",
"-. c #687781",
";. c #6F7B85",
":. c #6D798B",
">. c #727C88",
",. c #807E8F",
"<. c #2B848D",
"1. c #2A888F",
"2. c #3B8882",
"3. c #3C9285",
"4. c #3B9489",
"5. c #349C8E",
"6. c #3D9C8A",
"7. c #268791",
"8. c #2B8A91",
"9. c #299296",
"0. c #2F9F97",
"q. c #359B93",
"w. c #3FA383",
"e. c #3FA982",
"r. c #2FA19B",
"t. c #34A592",
"y. c #3BA693",
"u. c #3CAC94",
"i. c #37A698",
"p. c #38AA9A",
"a. c #3CB294",
"s. c #3FBD97",
"d. c #5B9A82",
"f. c #758495",
"g. c #7F8B96",
"h. c #44A280",
"j. c #46AC81",
"k. c #4BAB80",
"l. c #46B484",
"z. c #49B986",
"x. c #43B48A",
"c. c #45BD8C",
"v. c #41B392",
"b. c #42BE92",
"n. c #67A585",
"m. c #7CBE89",
"M. c #46C38C",
"N. c #49C48A",
"B. c #47C98C",
"V. c #4AC98C",
"C. c #52C58B",
"Z. c #52CC8E",
"A. c #44C392",
"S. c #5AC39C",
"D. c #5ED291",
"F. c #73C78D",
"G. c #7EC18A",
"H. c #77CE90",
"J. c #6BD896",
"K. c #77E097",
"L. c #79E097",
"P. c #8F8A99",
"I. c #8D949E",
"U. c #9E9FA9",
"Y. c #8FA3AF",
"T. c #9FA0AA",
"R. c #92A8B3",
"E. c #A2A9B3",
"W. c #88D392",
"Q. c #87DA95",
"!. c #83E59A",
"~. c #88E69A",
"^. c #ABBEC6",
"/. c #B2B8C0",
"(. c #A9C1C1",
"). c #B4C8CB",
"_. c #CBCED1",
"`. c #D3D7D9",
"'. c #D9E8E6",
"]. c #E4F6F0",
"[. c #EEF4F2",
"{. c #F6FEFA",
/* pixels */
"                                                                                ",
"                                                                                ",
"                                                                                ",
"                                                                                ",
"              # & & & .       # & & & .       # & & & .       # & & & .         ",
"              # * * * .       # * * * .       # * * * .       # * * * .         ",
"              # * * * .       # * * * .       # * * * .       # * * * .         ",
"              # & & & .       # & & & .       # & & & .       # & & & .         ",
"      # & & & .       # & & & .       # & & & .       # & & & .                 ",
"      # * * * .       # * * * .       # * * * .       # * * * .                 ",
"      # * * * .       # * * * .       # * * * .       # * * * .                 ",
"      # & & & .       # & & & .       # & & & .       # & & & .                 ",
"              # & & & .       # & & & .       # & & & .       # & & & .         ",
"              # * * * .       # * * * .       # * * * .       # * * * .         ",
"              # * * * .       # * * * .       # * * * .       # * * * .         ",
"              # & & & .       # & & & .       # & & & .       # & & & .         ",
"      # & & & .       # & & & .       # & & & .       # & & & .                 ",
"      # * * * .       # * * * .       # * * * .       # * * * .                 ",
"      # * * * .       # * * * $ % $ $ & * * * .       # * * * .   . $ % $ $ X   ",
"      # & & & .       # & & 2 Z H H C 2 * : : @ o o o & : - - @ X & Z H H C - . ",
"              # & & & .   % G m.W.F.k.s 4 6 6 8 8 8 8 6 6 6 6 8 4 G G.W.F.k.s ; ",
"              # * * * .   > V X.O...v.} ( ) ( [ @.@.@.+._ [ +._ R | S.n.] R D < ",
"              # * * * .   = 4 8 u b u.A.N.N.M.D.!.!.!.L.Z.J.K.Z.M.M.u.b w 0 6 = ",
"              # & & & .   . @ 9 N u.c.N.N.N.N.N.V.V.V.N.N.N.N.N.N.N.M.5.n q $   ",
"      # & & & .       # & - < 9 ' A.N.N.B.B.N.N.M.M.B.M.N.B.l.z } B.N.t.M q @   ",
"      # * * * .       # , P ^ r / A.b.h.{ } x.A.N. .{  .x.e.` >.] #.c.t.c q @   ",
"      # * * * .       & 8 T._.I B i.q.l e y 2.a.j.J 8 i 4.m ^ `.P.s l.t.c q @   ",
"      # & & & .       & 8 U.[._.>.i h q 8 0 u h F q 8 q i g.`.[.P.a l.t.c q @   ",
"              # & & & + 6 I.].{.E.P r T o.o.X.W E [ Y r I /.{.'.,.a l.a.*.q > + ",
"              # * * * o < ;.).'.^.:.A @.Q.~.~.J.C.H.o.S f.).'.(.-.U l.s.4.F C 7 ",
"              # * * * . X 3 ~ R.:.A r V E C.Z.V.z.U V r S f.Y.I _ l.N.M.c.j.l.( ",
"              # & & & o = p ! Q S 8 0 l 3.M.B.B.M.2.j 8 8 K Q N w.B.N.N.N.B.A./ ",
"      # & & & .       & 8 ) j.y q u f B 6.#.#.#. .4.N f f i x y.b.N.N.M.A.c.6.b ",
"      # * * * .       & 8 ) #.D g %.&.l y u u u u u v <.<.q.u.c.N.N.M.a.p.y.x < ",
"      # * * * .       # , t J q v 7.7.&.n n n n n n &.9.r.S.J.V.N.M.a.B l l 3 X ",
"      # & & & .       # & , 1 < d *.5.0.8.M n M M M n M =.d.$.| w.a.0.l 4 > X   ",
"                                > L x.a.B q 8 9 9 9 9 9 9 9 9 9 v 1.<.k < .     ",
"                                > h y.m 7 @ O + + + + + + + + + 5 k c d < .     ",
"                                > i b t @                       ; q d 5 $       ",
"                                , q 8 $                         > q 8 &         "
};
